<svg xmlns="http://www.w3.org/2000/svg" viewBox="0 0 1328.4 918.2"><defs><style>.cls-1{fill:none;stroke:#000;stroke-linecap:round;stroke-linejoin:round;stroke-width:3px;}</style></defs><title>Float Pads V1</title><g id="Layer_1" data-name="Layer 1"><polyline class="cls-1" points="588.6 635.5 574.4 615.8 559.3 596.4 543 577.8 525.1 561.1 509.8 549.8 493.2 540.4 475.2 533.5 455.6 529.3"/><line class="cls-1" x1="588.6" y1="849.4" x2="588.6" y2="635.5"/><line class="cls-1" x1="46.1" y1="635.5" x2="46.1" y2="849.4"/><line class="cls-1" x1="46.1" y1="849.4" x2="84.6" y2="858.6"/><line class="cls-1" x1="557.6" y1="858.6" x2="588.6" y2="849.4"/><line class="cls-1" x1="84.6" y1="916.7" x2="6.7" y2="916.7"/><polyline class="cls-1" points="183.2 529.3 166.6 532.9 151.1 538.8 136.6 546.4 122.8 555.6 109.8 565.8 97.4 576.9 79.2 595.3 62.1 614.9 46.1 635.5"/><line class="cls-1" x1="455.6" y1="529.3" x2="183.2" y2="529.3"/><line class="cls-1" x1="557.6" y1="916.7" x2="557.6" y2="858.6"/><line class="cls-1" x1="84.6" y1="858.6" x2="84.6" y2="916.7"/><line class="cls-1" x1="632.2" y1="916.7" x2="557.6" y2="916.7"/><polyline class="cls-1" points="613.7 163.3 613.2 161.2 612 159.3 610.2 158.1 608 157.7 605.8 158.1 604 159.3 602.8 161.2 602.3 163.3 602.8 165.5 604 167.3 605.8 168.6 608 169 610.2 168.6 612 167.3 613.2 165.5 613.7 163.3"/><line class="cls-1" x1="632.2" y1="916.7" x2="627" y2="145.3"/><polyline class="cls-1" points="31.1 163.3 30.7 161.2 29.4 159.3 27.6 158.1 25.4 157.7 23.2 158.1 21.4 159.3 20.2 161.2 19.7 163.3 20.2 165.5 21.4 167.3 23.2 168.6 25.4 169 27.6 168.6 29.4 167.3 30.7 165.5 31.1 163.3"/><polyline class="cls-1" points="613.7 585 613.2 582.8 612 581 610.2 579.8 608 579.3 605.8 579.8 604 581 602.8 582.8 602.3 585 602.8 587.2 604 589 605.8 590.2 608 590.7 610.2 590.2 612 589 613.2 587.2 613.7 585"/><line class="cls-1" x1="1.6" y1="145.3" x2="6.7" y2="916.7"/><polyline class="cls-1" points="31.1 585 30.7 582.8 29.4 581 27.6 579.8 25.4 579.3 23.2 579.8 21.4 581 20.2 582.8 19.7 585 20.2 587.2 21.4 589 23.2 590.2 25.4 590.7 27.6 590.2 29.4 589 30.7 587.2 31.1 585"/><line class="cls-1" x1="192.2" y1="206.8" x2="442.7" y2="206.8"/><polyline class="cls-1" points="192.2 149.5 186.6 150 181.2 151.6 176.3 154.3 171.9 157.9 168.3 162.2 165.7 167.2 164.1 172.5 163.5 178.1 164.1 183.7 165.7 189.1 168.3 194.1 171.9 198.4 176.3 202 181.2 204.6 186.6 206.3 192.2 206.8"/><line class="cls-1" x1="442.7" y1="149.5" x2="192.2" y2="149.5"/><polyline class="cls-1" points="442.7 206.8 448.3 206.3 453.7 204.6 458.6 202 463 198.4 466.6 194.1 469.2 189.1 470.8 183.7 471.4 178.1 470.8 172.5 469.2 167.2 466.6 162.2 463 157.9 458.6 154.3 453.7 151.6 448.3 150 442.7 149.5"/><polyline class="cls-1" points="627 145.3 623.7 127.1 618.3 111.3 611 97.5 601.9 85.6 591.4 75.3 579.5 66.5 559.9 55.5 538.5 46.6 516.3 39.1 493.8 32.2 458.2 21.9 422.5 13.1 386.4 6.7 349.7 2.8 312.6 1.5 275.5 2.7 238.6 6.3 202.1 12.3 166.2 20.4 130.8 30.6 109.1 38.1 87.8 46.9 67 57.2 46.7 69.3 34 78.6 22.6 89 13.1 100.7 7.5 110.4 3.6 121 1.5 132.6 1.6 145.3"/></g><g id="Layer_2" data-name="Layer 2"><polyline class="cls-1" points="1283.3 635.5 1269.1 615.8 1254 596.4 1237.7 577.8 1219.8 561.1 1204.5 549.8 1187.9 540.4 1169.9 533.5 1150.3 529.3"/><line class="cls-1" x1="1283.3" y1="849.4" x2="1283.3" y2="635.5"/><line class="cls-1" x1="740.8" y1="635.5" x2="740.8" y2="849.4"/><line class="cls-1" x1="740.8" y1="849.4" x2="779.3" y2="858.6"/><line class="cls-1" x1="1252.3" y1="858.6" x2="1283.3" y2="849.4"/><line class="cls-1" x1="779.3" y1="916.7" x2="701.4" y2="916.7"/><polyline class="cls-1" points="877.9 529.3 861.3 532.9 845.8 538.8 831.3 546.4 817.5 555.6 804.5 565.8 792.1 576.9 773.9 595.3 756.8 614.9 740.8 635.5"/><line class="cls-1" x1="1150.3" y1="529.3" x2="877.9" y2="529.3"/><line class="cls-1" x1="1252.3" y1="916.7" x2="1252.3" y2="858.6"/><line class="cls-1" x1="779.3" y1="858.6" x2="779.3" y2="916.7"/><line class="cls-1" x1="1326.9" y1="916.7" x2="1252.3" y2="916.7"/><polyline class="cls-1" points="1308.4 163.3 1307.9 161.2 1306.7 159.3 1304.9 158.1 1302.7 157.7 1300.5 158.1 1298.7 159.3 1297.5 161.2 1297 163.3 1297.5 165.5 1298.7 167.3 1300.5 168.6 1302.7 169 1304.9 168.6 1306.7 167.3 1307.9 165.5 1308.4 163.3"/><line class="cls-1" x1="1326.9" y1="916.7" x2="1321.7" y2="145.3"/><polyline class="cls-1" points="725.8 163.3 725.4 161.2 724.1 159.3 722.3 158.1 720.1 157.7 717.9 158.1 716.1 159.3 714.9 161.2 714.4 163.3 714.9 165.5 716.1 167.3 717.9 168.6 720.1 169 722.3 168.6 724.1 167.3 725.4 165.5 725.8 163.3"/><line class="cls-1" x1="696.3" y1="145.3" x2="701.4" y2="916.7"/><polyline class="cls-1" points="1321.7 145.3 1318.4 127.1 1313 111.3 1305.7 97.5 1296.6 85.6 1286.1 75.3 1274.2 66.5 1254.6 55.5 1233.2 46.6 1211 39.1 1188.5 32.2 1152.9 21.9 1117.2 13.1 1081.1 6.7 1044.4 2.8 1007.3 1.5 970.2 2.7 933.3 6.3 896.8 12.3 860.9 20.4 825.5 30.6 803.8 38.1 782.5 46.9 761.7 57.2 741.4 69.3 728.7 78.6 717.3 89 707.8 100.7 702.2 110.4 698.3 121 696.2 132.6 696.3 145.3"/></g></svg>