  0
SECTION
  2
HEADER
  9
$ACADVER
  1
AC1024
  9
$ACADMAINTVER
 70
     6
  9
$DWGCODEPAGE
  3
ANSI_1252
  9
$INSBASE
 10
0.0
 20
0.0
 30
0.0
  9
$EXTMIN
 10
1.000000000000000E+20
 20
1.000000000000000E+20
 30
1.000000000000000E+20
  9
$EXTMAX
 10
-1.000000000000000E+20
 20
-1.000000000000000E+20
 30
-1.000000000000000E+20
  9
$LIMMIN
 10
0.0
 20
0.0
  9
$LIMMAX
 10
12.0
 20
9.0
  9
$ORTHOMODE
 70
     0
  9
$REGENMODE
 70
     1
  9
$FILLMODE
 70
     1
  9
$QTEXTMODE
 70
     0
  9
$MIRRTEXT
 70
     1
  9
$LTSCALE
 40
1.0
  9
$ATTMODE
 70
     1
  9
$TEXTSIZE
 40
0.2
  9
$TRACEWID
 40
0.05
  9
$TEXTSTYLE
  7
Standard
  9
$CLAYER
  8
0
  9
$CELTYPE
  6
ByLayer
  9
$CECOLOR
 62
   256
  9
$CELTSCALE
 40
1.0
  9
$DISPSILH
 70
     0
  9
$DIMSCALE
 40
1.0
  9
$DIMASZ
 40
0.18
  9
$DIMEXO
 40
0.0625
  9
$DIMDLI
 40
0.38
  9
$DIMRND
 40
0.0
  9
$DIMDLE
 40
0.0
  9
$DIMEXE
 40
0.18
  9
$DIMTP
 40
0.0
  9
$DIMTM
 40
0.0
  9
$DIMTXT
 40
0.18
  9
$DIMCEN
 40
0.09
  9
$DIMTSZ
 40
0.0
  9
$DIMTOL
 70
     0
  9
$DIMLIM
 70
     0
  9
$DIMTIH
 70
     1
  9
$DIMTOH
 70
     1
  9
$DIMSE1
 70
     0
  9
$DIMSE2
 70
     0
  9
$DIMTAD
 70
     0
  9
$DIMZIN
 70
     0
  9
$DIMBLK
  1

  9
$DIMASO
 70
     1
  9
$DIMSHO
 70
     1
  9
$DIMPOST
  1

  9
$DIMAPOST
  1

  9
$DIMALT
 70
     0
  9
$DIMALTD
 70
     2
  9
$DIMALTF
 40
25.4
  9
$DIMLFAC
 40
1.0
  9
$DIMTOFL
 70
     0
  9
$DIMTVP
 40
0.0
  9
$DIMTIX
 70
     0
  9
$DIMSOXD
 70
     0
  9
$DIMSAH
 70
     0
  9
$DIMBLK1
  1

  9
$DIMBLK2
  1

  9
$DIMSTYLE
  2
Standard
  9
$DIMCLRD
 70
     0
  9
$DIMCLRE
 70
     0
  9
$DIMCLRT
 70
     0
  9
$DIMTFAC
 40
1.0
  9
$DIMGAP
 40
0.09
  9
$DIMJUST
 70
     0
  9
$DIMSD1
 70
     0
  9
$DIMSD2
 70
     0
  9
$DIMTOLJ
 70
     1
  9
$DIMTZIN
 70
     0
  9
$DIMALTZ
 70
     0
  9
$DIMALTTZ
 70
     0
  9
$DIMUPT
 70
     0
  9
$DIMDEC
 70
     4
  9
$DIMTDEC
 70
     4
  9
$DIMALTU
 70
     2
  9
$DIMALTTD
 70
     2
  9
$DIMTXSTY
  7
Standard
  9
$DIMAUNIT
 70
     0
  9
$DIMADEC
 70
     0
  9
$DIMALTRND
 40
0.0
  9
$DIMAZIN
 70
     0
  9
$DIMDSEP
 70
    46
  9
$DIMATFIT
 70
     3
  9
$DIMFRAC
 70
     0
  9
$DIMLDRBLK
  1

  9
$DIMLUNIT
 70
     2
  9
$DIMLWD
 70
    -2
  9
$DIMLWE
 70
    -2
  9
$DIMTMOVE
 70
     0
  9
$DIMFXL
 40
1.0
  9
$DIMFXLON
 70
     0
  9
$DIMJOGANG
 40
0.7853981633974483
  9
$DIMTFILL
 70
     0
  9
$DIMTFILLCLR
 70
     0
  9
$DIMARCSYM
 70
     0
  9
$DIMLTYPE
  6

  9
$DIMLTEX1
  6

  9
$DIMLTEX2
  6

  9
$DIMTXTDIRECTION
 70
     0
  9
$LUNITS
 70
     2
  9
$LUPREC
 70
     4
  9
$SKETCHINC
 40
0.1
  9
$FILLETRAD
 40
0.5
  9
$AUNITS
 70
     0
  9
$AUPREC
 70
     0
  9
$MENU
  1
.
  9
$ELEVATION
 40
0.0
  9
$PELEVATION
 40
0.0
  9
$THICKNESS
 40
0.0
  9
$LIMCHECK
 70
     0
  9
$CHAMFERA
 40
0.5
  9
$CHAMFERB
 40
0.5
  9
$CHAMFERC
 40
1.0
  9
$CHAMFERD
 40
0.0
  9
$SKPOLY
 70
     0
  9
$TDCREATE
 40
2458884.922564132
  9
$TDUCREATE
 40
2458885.255897465
  9
$TDUPDATE
 40
2458884.922564143
  9
$TDUUPDATE
 40
2458885.255897477
  9
$TDINDWG
 40
0.0000000116
  9
$TDUSRTIMER
 40
0.0000000116
  9
$USRTIMER
 70
     1
  9
$ANGBASE
 50
0.0
  9
$ANGDIR
 70
     0
  9
$PDMODE
 70
     0
  9
$PDSIZE
 40
0.0
  9
$PLINEWID
 40
0.0
  9
$SPLFRAME
 70
     0
  9
$SPLINETYPE
 70
     6
  9
$SPLINESEGS
 70
     8
  9
$HANDSEED
  5
5F
  9
$SURFTAB1
 70
     6
  9
$SURFTAB2
 70
     6
  9
$SURFTYPE
 70
     6
  9
$SURFU
 70
     6
  9
$SURFV
 70
     6
  9
$UCSBASE
  2

  9
$UCSNAME
  2

  9
$UCSORG
 10
0.0
 20
0.0
 30
0.0
  9
$UCSXDIR
 10
1.0
 20
0.0
 30
0.0
  9
$UCSYDIR
 10
0.0
 20
1.0
 30
0.0
  9
$UCSORTHOREF
  2

  9
$UCSORTHOVIEW
 70
     0
  9
$UCSORGTOP
 10
0.0
 20
0.0
 30
0.0
  9
$UCSORGBOTTOM
 10
0.0
 20
0.0
 30
0.0
  9
$UCSORGLEFT
 10
0.0
 20
0.0
 30
0.0
  9
$UCSORGRIGHT
 10
0.0
 20
0.0
 30
0.0
  9
$UCSORGFRONT
 10
0.0
 20
0.0
 30
0.0
  9
$UCSORGBACK
 10
0.0
 20
0.0
 30
0.0
  9
$PUCSBASE
  2

  9
$PUCSNAME
  2

  9
$PUCSORG
 10
0.0
 20
0.0
 30
0.0
  9
$PUCSXDIR
 10
1.0
 20
0.0
 30
0.0
  9
$PUCSYDIR
 10
0.0
 20
1.0
 30
0.0
  9
$PUCSORTHOREF
  2

  9
$PUCSORTHOVIEW
 70
     0
  9
$PUCSORGTOP
 10
0.0
 20
0.0
 30
0.0
  9
$PUCSORGBOTTOM
 10
0.0
 20
0.0
 30
0.0
  9
$PUCSORGLEFT
 10
0.0
 20
0.0
 30
0.0
  9
$PUCSORGRIGHT
 10
0.0
 20
0.0
 30
0.0
  9
$PUCSORGFRONT
 10
0.0
 20
0.0
 30
0.0
  9
$PUCSORGBACK
 10
0.0
 20
0.0
 30
0.0
  9
$USERI1
 70
     0
  9
$USERI2
 70
     0
  9
$USERI3
 70
     0
  9
$USERI4
 70
     0
  9
$USERI5
 70
     0
  9
$USERR1
 40
0.0
  9
$USERR2
 40
0.0
  9
$USERR3
 40
0.0
  9
$USERR4
 40
0.0
  9
$USERR5
 40
0.0
  9
$WORLDVIEW
 70
     1
  9
$SHADEDGE
 70
     3
  9
$SHADEDIF
 70
    70
  9
$TILEMODE
 70
     1
  9
$MAXACTVP
 70
    64
  9
$PINSBASE
 10
0.0
 20
0.0
 30
0.0
  9
$PLIMCHECK
 70
     0
  9
$PEXTMIN
 10
1.000000000000000E+20
 20
1.000000000000000E+20
 30
1.000000000000000E+20
  9
$PEXTMAX
 10
-1.000000000000000E+20
 20
-1.000000000000000E+20
 30
-1.000000000000000E+20
  9
$PLIMMIN
 10
0.0
 20
0.0
  9
$PLIMMAX
 10
12.0
 20
9.0
  9
$UNITMODE
 70
     0
  9
$VISRETAIN
 70
     1
  9
$PLINEGEN
 70
     0
  9
$PSLTSCALE
 70
     1
  9
$TREEDEPTH
 70
  3020
  9
$CMLSTYLE
  2
Standard
  9
$CMLJUST
 70
     0
  9
$CMLSCALE
 40
1.0
  9
$PROXYGRAPHICS
 70
     1
  9
$MEASUREMENT
 70
     0
  9
$CELWEIGHT
370
    -1
  9
$ENDCAPS
280
     0
  9
$JOINSTYLE
280
     0
  9
$LWDISPLAY
290
     1
  9
$INSUNITS
 70
     1
  9
$HYPERLINKBASE
  1

  9
$STYLESHEET
  1

  9
$XEDIT
290
     1
  9
$CEPSNTYPE
380
     0
  9
$PSTYLEMODE
290
     1
  9
$FINGERPRINTGUID
  2
{237FF6DF-0294-4985-BE0D-8DD11758BA0B}
  9
$VERSIONGUID
  2
{FAEB1C32-E019-11D5-929B-00C0DF256EC4}
  9
$EXTNAMES
290
     1
  9
$PSVPSCALE
 40
0.0
  9
$OLESTARTUP
290
     0
  9
$SORTENTS
280
   127
  9
$INDEXCTL
280
     0
  9
$HIDETEXT
280
     1
  9
$XCLIPFRAME
280
     2
  9
$HALOGAP
280
     0
  9
$OBSCOLOR
 70
   257
  9
$OBSLTYPE
280
     0
  9
$INTERSECTIONDISPLAY
280
     0
  9
$INTERSECTIONCOLOR
 70
   257
  9
$DIMASSOC
280
     2
  9
$PROJECTNAME
  1

  9
$CAMERADISPLAY
290
     0
  9
$LENSLENGTH
 40
50.0
  9
$CAMERAHEIGHT
 40
0.0
  9
$STEPSPERSEC
 40
2.0
  9
$STEPSIZE
 40
6.0
  9
$3DDWFPREC
 40
2.0
  9
$PSOLWIDTH
 40
0.25
  9
$PSOLHEIGHT
 40
4.0
  9
$LOFTANG1
 40
1.570796326794897
  9
$LOFTANG2
 40
1.570796326794897
  9
$LOFTMAG1
 40
0.0
  9
$LOFTMAG2
 40
0.0
  9
$LOFTPARAM
 70
     7
  9
$LOFTNORMALS
280
     1
  9
$LATITUDE
 40
37.795
  9
$LONGITUDE
 40
-122.394
  9
$NORTHDIRECTION
 40
0.0
  9
$TIMEZONE
 70
 -8000
  9
$LIGHTGLYPHDISPLAY
280
     1
  9
$TILEMODELIGHTSYNCH
280
     1
  9
$CMATERIAL
347
3C
  9
$SOLIDHIST
280
     1
  9
$SHOWHIST
280
     1
  9
$DWFFRAME
280
     2
  9
$DGNFRAME
280
     2
  9
$REALWORLDSCALE
290
     1
  9
$INTERFERECOLOR
 62
   256
  9
$CSHADOW
280
     0
  9
$SHADOWPLANELOCATION
 40
0.0
  0
ENDSEC
  0
SECTION
  2
CLASSES
  0
CLASS
  1
ACDBDICTIONARYWDFLT
  2
AcDbDictionaryWithDefault
  3
ObjectDBX Classes
 90
        0
 91
        4
280
     0
281
     0
  0
CLASS
  1
VISUALSTYLE
  2
AcDbVisualStyle
  3
ObjectDBX Classes
 90
     4095
 91
        4
280
     0
281
     0
  0
CLASS
  1
MATERIAL
  2
AcDbMaterial
  3
ObjectDBX Classes
 90
     1153
 91
        4
280
     0
281
     0
  0
CLASS
  1
SUN
  2
AcDbSun
  3
SCENEOE
 90
     1024
 91
        4
280
     0
281
     0
  0
ENDSEC
  0
SECTION
  2
TABLES
  0
TABLE
  2
VPORT
  5
8
330
0
100
AcDbSymbolTable
 70
     1
  0
VPORT
  5
29
330
8
100
AcDbSymbolTableRecord
100
AcDbViewportTableRecord
  2
*Active
 70
     0
 10
0.0
 20
0.0
 11
1.0
 21
1.0
 12
0.0
 22
0.0
 13
0.0
 23
0.0
 14
0.5
 24
0.5
 15
0.5
 25
0.5
 16
0.0
 26
0.0
 36
1.0
 17
540.0
 27
-540.0
 37
0.0
 40
1080.0
 41
1.0
 42
50.0
 43
0.0
 44
0.0
 50
0.0
 51
0.0
 71
     0
 72
   100
 73
     1
 74
     3
 75
     0
 76
     0
 77
     0
 78
     0
281
     0
 65
     1
110
0.0
120
0.0
130
0.0
111
1.0
121
0.0
131
0.0
112
0.0
122
1.0
132
0.0
 79
     0
146
0.0
 60
     3
 61
     5
292
     1
282
     1
141
0.0
142
0.0
 63
   250
361
3F
  0
ENDTAB
  0
TABLE
  2
LTYPE
  5
5
330
0
100
AcDbSymbolTable
 70
     1
  0
LTYPE
  5
14
330
5
100
AcDbSymbolTableRecord
100
AcDbLinetypeTableRecord
  2
ByBlock
 70
     0
  3

 72
    65
 73
     0
 40
0.0
  0
LTYPE
  5
15
330
5
100
AcDbSymbolTableRecord
100
AcDbLinetypeTableRecord
  2
ByLayer
 70
     0
  3

 72
    65
 73
     0
 40
0.0
  0
LTYPE
  5
16
330
5
100
AcDbSymbolTableRecord
100
AcDbLinetypeTableRecord
  2
Continuous
 70
     0
  3
Solid line
 72
    65
 73
     0
 40
0.0
  0
ENDTAB
  0
TABLE
  2
LAYER
  5
2
330
0
100
AcDbSymbolTable
 70
     2
  0
LAYER
  5
10
330
2
100
AcDbSymbolTableRecord
100
AcDbLayerTableRecord
  2
0
 70
     0
 62
     7
  6
Continuous
370
    -3
390
F
347
3E
  0
LAYER
  5
40
330
2
100
AcDbSymbolTableRecord
100
AcDbLayerTableRecord
  2
Layer 1
 70
     0
 62
     7
  6
Continuous
370
    -3
390
F
347
3E
  0
ENDTAB
  0
TABLE
  2
STYLE
  5
3
330
0
100
AcDbSymbolTable
 70
     1
  0
STYLE
  5
11
330
3
100
AcDbSymbolTableRecord
100
AcDbTextStyleTableRecord
  2
Standard
 70
     0
 40
0.0
 41
1.0
 50
0.0
 71
     0
 42
0.2
  3
txt
  4

  0
ENDTAB
  0
TABLE
  2
VIEW
  5
6
330
0
100
AcDbSymbolTable
 70
     0
  0
ENDTAB
  0
TABLE
  2
UCS
  5
7
330
0
100
AcDbSymbolTable
 70
     0
  0
ENDTAB
  0
TABLE
  2
APPID
  5
9
330
0
100
AcDbSymbolTable
 70
     1
  0
APPID
  5
12
330
9
100
AcDbSymbolTableRecord
100
AcDbRegAppTableRecord
  2
ACAD
 70
     0
  0
ENDTAB
  0
TABLE
  2
DIMSTYLE
  5
A
330
0
100
AcDbSymbolTable
 70
     1
100
AcDbDimStyleTable
  0
DIMSTYLE
105
27
330
A
100
AcDbSymbolTableRecord
100
AcDbDimStyleTableRecord
  2
Standard
 70
     0
178
     0
340
11
  0
ENDTAB
  0
TABLE
  2
BLOCK_RECORD
  5
1
330
0
100
AcDbSymbolTable
 70
     3
  0
BLOCK_RECORD
  5
1F
330
1
100
AcDbSymbolTableRecord
100
AcDbBlockTableRecord
  2
*Model_Space
340
22
 70
     0
280
     1
281
     0
  0
BLOCK_RECORD
  5
1B
330
1
100
AcDbSymbolTableRecord
100
AcDbBlockTableRecord
  2
*Paper_Space
340
1E
 70
     0
280
     1
281
     0
  0
BLOCK_RECORD
  5
23
330
1
100
AcDbSymbolTableRecord
100
AcDbBlockTableRecord
  2
*Paper_Space0
340
26
 70
     0
280
     1
281
     0
  0
BLOCK_RECORD
  5
41
330
1
100
AcDbSymbolTableRecord
100
AcDbBlockTableRecord
  2
block 2
340
0
102
{BLKREFS
331
42
102
}
 70
     0
280
     1
281
     0
  0
BLOCK_RECORD
  5
4F
330
1
100
AcDbSymbolTableRecord
100
AcDbBlockTableRecord
  2
block 3
340
0
102
{BLKREFS
331
50
102
}
 70
     0
280
     1
281
     0
  0
ENDTAB
  0
ENDSEC
  0
SECTION
  2
BLOCKS
  0
BLOCK
  5
20
330
1F
100
AcDbEntity
  8
0
100
AcDbBlockBegin
  2
*Model_Space
 70
     0
 10
0.0
 20
0.0
 30
0.0
  3
*Model_Space
  1

  0
ENDBLK
  5
21
330
1F
100
AcDbEntity
  8
0
100
AcDbBlockEnd
  0
BLOCK
  5
1C
330
1B
100
AcDbEntity
 67
     1
  8
0
100
AcDbBlockBegin
  2
*Paper_Space
 70
     0
 10
0.0
 20
0.0
 30
0.0
  3
*Paper_Space
  1

  0
ENDBLK
  5
1D
330
1B
100
AcDbEntity
 67
     1
  8
0
100
AcDbBlockEnd
  0
BLOCK
  5
24
330
23
100
AcDbEntity
  8
0
100
AcDbBlockBegin
  2
*Paper_Space0
 70
     0
 10
0.0
 20
0.0
 30
0.0
  3
*Paper_Space0
  1

  0
ENDBLK
  5
25
330
23
100
AcDbEntity
  8
0
100
AcDbBlockEnd
  0
BLOCK
  5
43
330
41
100
AcDbEntity
  8
0
100
AcDbBlockBegin
  2
block 2
 70
     0
 10
0.0
 20
0.0
 30
0.0
  3
block 2
  1

  0
SPLINE
  5
45
330
41
100
AcDbEntity
  8
Layer 1
370
     0
100
AcDbSpline
210
0.0
220
0.0
230
1.0
 70
    11
 71
     3
 72
    23
 73
    19
 74
     0
 42
0.0000000001
 43
0.0000000001
 12
1.0
 22
0.0
 32
0.0
 13
1.0
 23
0.0
 33
0.0
 40
0.0
 40
0.0
 40
0.0
 40
0.0
 40
1.0
 40
1.0
 40
1.0
 40
2.0
 40
2.0
 40
2.0
 40
3.0
 40
3.0
 40
3.0
 40
4.0
 40
4.0
 40
4.0
 40
5.0
 40
5.0
 40
5.0
 40
6.0
 40
6.0
 40
6.0
 40
6.0
 10
815.2588467558089
 20
-585.5500183105469
 30
0.0
 10
815.2588467558089
 20
-585.5500183105469
 30
0.0
 10
724.9339871366683
 20
-633.2250366210938
 30
0.0
 10
724.9339871366683
 20
-633.2250366210938
 30
0.0
 10
731.483974929637
 20
-647.1250305175781
 30
0.0
 10
736.2338833769027
 20
-661.9750366210938
 30
0.0
 10
739.0588955839339
 20
-677.824951171875
 30
0.0
 10
749.7839932401839
 20
-737.9248962402344
 30
0.0
 10
733.9589505155745
 20
-791.0999450683594
 30
0.0
 10
694.1589932401839
 20
-836.4499816894531
 30
0.0
 10
718.4589199979964
 20
-860.7499084472656
 30
0.0
 10
728.7338833769027
 20
-889.4249877929688
 30
0.0
 10
752.8339199979964
 20
-913.5
 30
0.0
 10
780.4588894804183
 20
-888.39990234375
 30
0.0
 10
805.0089077909652
 20
-842.25
 30
0.0
 10
817.8339199979964
 20
-798.5
 30
0.0
 10
839.1589932401839
 20
-725.7250366210938
 30
0.0
 10
850.1589016874495
 20
-655.4749450683594
 30
0.0
 10
815.2588467558089
 20
-585.5500183105469
 30
0.0
  0
SPLINE
  5
46
330
41
100
AcDbEntity
  8
Layer 1
370
     0
100
AcDbSpline
210
0.0
220
0.0
230
1.0
 70
    11
 71
     3
 72
    14
 73
    10
 74
     0
 42
0.0000000001
 43
0.0000000001
 12
1.0
 22
0.0
 32
0.0
 13
1.0
 23
0.0
 33
0.0
 40
0.0
 40
0.0
 40
0.0
 40
0.0
 40
1.0
 40
1.0
 40
1.0
 40
2.0
 40
2.0
 40
2.0
 40
3.0
 40
3.0
 40
3.0
 40
3.0
 10
814.9339871366683
 20
-584.8999938964844
 30
0.0
 10
815.0339322050277
 20
-585.1249084472656
 30
0.0
 10
815.1589016874495
 20
-585.324951171875
 30
0.0
 10
815.2588467558089
 20
-585.5500183105469
 30
0.0
 10
815.2588467558089
 20
-585.5500183105469
 30
0.0
 10
816.6838650663558
 20
-584.7998962402344
 30
0.0
 10
816.6838650663558
 20
-584.7998962402344
 30
0.0
 10
816.1089138944808
 20
-584.8249206542969
 30
0.0
 10
815.5339627226058
 20
-584.8749694824219
 30
0.0
 10
814.9339871366683
 20
-584.8999938964844
 30
0.0
  0
HATCH
  5
47
330
41
100
AcDbEntity
  8
Layer 1
 62
     7
420
 16777215
100
AcDbHatch
 10
0.0
 20
0.0
 30
0.0
210
0.0
220
0.0
230
1.0
  2
SOLID
 70
     1
 71
     0
 91
        2
 92
        1
 93
        1
 72
     4
 94
        3
 73
     0
 74
     1
 95
       23
 96
       19
 40
0.0
 40
0.0
 40
0.0
 40
0.0
 40
1.0
 40
1.0
 40
1.0
 40
2.0
 40
2.0
 40
2.0
 40
3.0
 40
3.0
 40
3.0
 40
4.0
 40
4.0
 40
4.0
 40
5.0
 40
5.0
 40
5.0
 40
6.0
 40
6.0
 40
6.0
 40
6.0
 10
815.2588467558089
 20
-585.5500183105469
 10
815.2588467558089
 20
-585.5500183105469
 10
724.9339871366683
 20
-633.2250366210938
 10
724.9339871366683
 20
-633.2250366210938
 10
731.483974929637
 20
-647.1250305175781
 10
736.2338833769027
 20
-661.9750366210938
 10
739.0588955839339
 20
-677.824951171875
 10
749.7839932401839
 20
-737.9248962402344
 10
733.9589505155745
 20
-791.0999450683594
 10
694.1589932401839
 20
-836.4499816894531
 10
718.4589199979964
 20
-860.7499084472656
 10
728.7338833769027
 20
-889.4249877929688
 10
752.8339199979964
 20
-913.5
 10
780.4588894804183
 20
-888.39990234375
 10
805.0089077909652
 20
-842.25
 10
817.8339199979964
 20
-798.5
 10
839.1589932401839
 20
-725.7250366210938
 10
850.1589016874495
 20
-655.4749450683594
 10
815.2588467558089
 20
-585.5500183105469
 97
        0
 97
        0
 92
        1
 93
        1
 72
     4
 94
        3
 73
     0
 74
     1
 95
       14
 96
       10
 40
0.0
 40
0.0
 40
0.0
 40
0.0
 40
1.0
 40
1.0
 40
1.0
 40
2.0
 40
2.0
 40
2.0
 40
3.0
 40
3.0
 40
3.0
 40
3.0
 10
814.9339871366683
 20
-584.8999938964844
 10
815.0339322050277
 20
-585.1249084472656
 10
815.1589016874495
 20
-585.324951171875
 10
815.2588467558089
 20
-585.5500183105469
 10
815.2588467558089
 20
-585.5500183105469
 10
816.6838650663558
 20
-584.7998962402344
 10
816.6838650663558
 20
-584.7998962402344
 10
816.1089138944808
 20
-584.8249206542969
 10
815.5339627226058
 20
-584.8749694824219
 10
814.9339871366683
 20
-584.8999938964844
 97
        0
 97
        0
 75
     2
 76
     1
 98
        0
  0
SPLINE
  5
48
330
41
100
AcDbEntity
  8
Layer 1
370
     0
100
AcDbSpline
210
0.0
220
0.0
230
1.0
 70
    11
 71
     3
 72
    95
 73
    91
 74
     0
 42
0.0000000001
 43
0.0000000001
 12
1.0
 22
0.0
 32
0.0
 13
1.0
 23
0.0
 33
0.0
 40
0.0
 40
0.0
 40
0.0
 40
0.0
 40
1.0
 40
1.0
 40
1.0
 40
2.0
 40
2.0
 40
2.0
 40
3.0
 40
3.0
 40
3.0
 40
4.0
 40
4.0
 40
4.0
 40
5.0
 40
5.0
 40
5.0
 40
6.0
 40
6.0
 40
6.0
 40
7.0
 40
7.0
 40
7.0
 40
8.0
 40
8.0
 40
8.0
 40
9.0
 40
9.0
 40
9.0
 40
10.0
 40
10.0
 40
10.0
 40
11.0
 40
11.0
 40
11.0
 40
12.0
 40
12.0
 40
12.0
 40
13.0
 40
13.0
 40
13.0
 40
14.0
 40
14.0
 40
14.0
 40
15.0
 40
15.0
 40
15.0
 40
16.0
 40
16.0
 40
16.0
 40
17.0
 40
17.0
 40
17.0
 40
18.0
 40
18.0
 40
18.0
 40
19.0
 40
19.0
 40
19.0
 40
20.0
 40
20.0
 40
20.0
 40
21.0
 40
21.0
 40
21.0
 40
22.0
 40
22.0
 40
22.0
 40
23.0
 40
23.0
 40
23.0
 40
24.0
 40
24.0
 40
24.0
 40
25.0
 40
25.0
 40
25.0
 40
26.0
 40
26.0
 40
26.0
 40
27.0
 40
27.0
 40
27.0
 40
28.0
 40
28.0
 40
28.0
 40
29.0
 40
29.0
 40
29.0
 40
30.0
 40
30.0
 40
30.0
 40
30.0
 10
113.4589199234906
 20
-860.375
 30
0.0
 10
113.4589199979964
 20
-856.8333206176758
 30
0.0
 10
113.4589199979964
 20
-853.2916793823242
 30
0.0
 10
113.4589183961216
 20
-849.75
 30
0.0
 10
113.6325930317107
 20
-848.8530120849609
 30
0.0
 10
113.8209636022511
 20
-847.9585800170898
 30
0.0
 10
113.9776755382481
 20
-847.0586547851562
 30
0.0
 10
115.5455766876403
 20
-838.0549392700195
 30
0.0
 10
116.2603085001174
 20
-828.8022003173828
 30
0.0
 10
118.8100819547835
 20
-820.0861892700195
 30
0.0
 10
135.3138308485213
 20
-763.6703643798828
 30
0.0
 10
152.4371771772567
 20
-707.435546875
 30
0.0
 10
168.8814072569076
 20
-651.0026798248291
 30
0.0
 10
175.4548554380599
 20
-628.4441146850586
 30
0.0
 10
184.8599581678573
 20
-607.4672756195068
 30
0.0
 10
199.1332917173568
 20
-588.7871513366699
 30
0.0
 10
227.2860531767074
 20
-551.9424352645874
 30
0.0
 10
262.6440529783431
 20
-524.2713270187378
 30
0.0
 10
305.3357129057113
 20
-506.119434595108
 30
0.0
 10
320.566292281932
 20
-499.6436021327972
 30
0.0
 10
336.3640217741195
 20
-495.1523551940918
 30
0.0
 10
353.0857281645003
 20
-495.055502563715
 30
0.0
 10
381.9287877042952
 20
-494.8884428143501
 30
0.0
 10
410.7726674040023
 20
-494.8460166752338
 30
0.0
 10
439.6162610014144
 20
-494.7980578839779
 30
0.0
 10
482.4081234892074
 20
-494.7269071489573
 30
0.0
 10
525.2000622709456
 20
-494.6928313970566
 30
0.0
 10
567.9919629057113
 20
-494.6498963087797
 30
0.0
 10
607.457104202098
 20
-494.6102993041277
 30
0.0
 10
646.922207351512
 20
-494.5832244902849
 30
0.0
 10
686.3873105009261
 20
-494.5278373211622
 30
0.0
 10
687.4946789701644
 20
-494.5262832045555
 30
0.0
 10
688.6017422636214
 20
-494.2651142030954
 30
0.0
 10
689.7089199979964
 20
-494.1250010430813
 30
0.0
 10
716.5839199979964
 20
-494.125
 30
0.0
 10
743.4589199979964
 20
-494.125
 30
0.0
 10
770.3339199979964
 20
-494.125005364418
 30
0.0
 10
770.7092099149886
 20
-494.2725725322962
 30
0.0
 10
771.0764126737777
 20
-494.5223035514355
 30
0.0
 10
771.461010452098
 20
-494.5529977828264
 30
0.0
 10
788.9175991972152
 20
-495.9463196098804
 30
0.0
 10
804.8676876981917
 20
-502.1338889598846
 30
0.0
 10
820.2170376737777
 20
-510.0774929523468
 30
0.0
 10
824.9631314237777
 20
-512.5337061882019
 30
0.0
 10
829.3951230009261
 20
-515.5969891548157
 30
0.0
 10
834.4658474882308
 20
-518.683596611023
 30
0.0
 10
832.9494290311995
 20
-519.549075126648
 30
0.0
 10
832.1654324491683
 20
-520.0235471725464
 30
0.0
 10
831.3577847440902
 20
-520.4536375999451
 30
0.0
 10
779.1784481962386
 20
-548.2407960891724
 30
0.0
 10
726.957607742137
 20
-575.9506950378418
 30
0.0
 10
674.8674206693831
 20
-603.9041004180908
 30
0.0
 10
668.5487179716292
 20
-607.2949466705322
 30
0.0
 10
662.426586623973
 20
-608.9545021057129
 30
0.0
 10
655.1518444975081
 20
-608.8666019439697
 30
0.0
 10
627.8735928495589
 20
-608.5369739532471
 30
0.0
 10
600.5871396024886
 20
-608.927360534668
 30
0.0
 10
573.3036618192855
 20
-608.9747104644775
 30
0.0
 10
533.4272580106917
 20
-609.0439281463623
 30
0.0
 10
493.5507779081527
 20
-609.0466938018799
 30
0.0
 10
453.6743359525863
 20
-609.0845832824707
 30
0.0
 10
434.4071011503402
 20
-609.1028938293457
 30
0.0
 10
415.1370816190902
 20
-608.9597187042236
 30
0.0
 10
395.8742527921859
 20
-609.2645034790039
 30
0.0
 10
389.5717053373519
 20
-609.3642292022705
 30
0.0
 10
383.1316380460921
 20
-610.0075588226318
 30
0.0
 10
377.0228962858382
 20
-611.500602722168
 30
0.0
 10
352.1907811124984
 20
-617.5698337554932
 30
0.0
 10
332.249355789012
 20
-631.5947685241699
 30
0.0
 10
315.6425290067855
 20
-650.6413803100586
 30
0.0
 10
308.5427288969222
 20
-658.784252166748
 30
0.0
 10
302.8651814420882
 20
-667.7901420593262
 30
0.0
 10
299.7718243559066
 20
-678.3148155212402
 30
0.0
 10
291.0573582609359
 20
-707.9644927978516
 30
0.0
 10
282.1879010160628
 20
-737.568603515625
 30
0.0
 10
273.4440426786605
 20
-767.2096786499023
 30
0.0
 10
270.2439503629867
 20
-778.0577430725098
 30
0.0
 10
268.2771210630599
 20
-789.1366920471191
 30
0.0
 10
269.0964226682845
 20
-800.4793891906738
 30
0.0
 10
269.5202450712386
 20
-806.3470993041992
 30
0.0
 10
270.740213867015
 20
-812.1573219299316
 30
0.0
 10
271.6478257139388
 20
-818.314567565918
 30
0.0
 10
221.7577462156478
 20
-844.8619232177734
 30
0.0
 10
171.5433268507186
 20
-871.5818557739258
 30
0.0
 10
120.6374298294249
 20
-898.6697540283203
 30
0.0
 10
119.0043215711776
 20
-891.9523391723633
 30
0.0
 10
117.2235460837546
 20
-885.7679901123047
 30
0.0
 10
116.0477827747527
 20
-879.4707260131836
 30
0.0
 10
114.870291825122
 20
-873.164192199707
 30
0.0
 10
114.2970264216128
 20
-866.7448959350586
 30
0.0
 10
113.4589199234906
 20
-860.375
 30
0.0
  0
HATCH
  5
49
330
41
100
AcDbEntity
  8
Layer 1
 62
     7
420
 16777215
100
AcDbHatch
 10
0.0
 20
0.0
 30
0.0
210
0.0
220
0.0
230
1.0
  2
SOLID
 70
     1
 71
     0
 91
        1
 92
        1
 93
        1
 72
     4
 94
        3
 73
     0
 74
     1
 95
       95
 96
       91
 40
0.0
 40
0.0
 40
0.0
 40
0.0
 40
1.0
 40
1.0
 40
1.0
 40
2.0
 40
2.0
 40
2.0
 40
3.0
 40
3.0
 40
3.0
 40
4.0
 40
4.0
 40
4.0
 40
5.0
 40
5.0
 40
5.0
 40
6.0
 40
6.0
 40
6.0
 40
7.0
 40
7.0
 40
7.0
 40
8.0
 40
8.0
 40
8.0
 40
9.0
 40
9.0
 40
9.0
 40
10.0
 40
10.0
 40
10.0
 40
11.0
 40
11.0
 40
11.0
 40
12.0
 40
12.0
 40
12.0
 40
13.0
 40
13.0
 40
13.0
 40
14.0
 40
14.0
 40
14.0
 40
15.0
 40
15.0
 40
15.0
 40
16.0
 40
16.0
 40
16.0
 40
17.0
 40
17.0
 40
17.0
 40
18.0
 40
18.0
 40
18.0
 40
19.0
 40
19.0
 40
19.0
 40
20.0
 40
20.0
 40
20.0
 40
21.0
 40
21.0
 40
21.0
 40
22.0
 40
22.0
 40
22.0
 40
23.0
 40
23.0
 40
23.0
 40
24.0
 40
24.0
 40
24.0
 40
25.0
 40
25.0
 40
25.0
 40
26.0
 40
26.0
 40
26.0
 40
27.0
 40
27.0
 40
27.0
 40
28.0
 40
28.0
 40
28.0
 40
29.0
 40
29.0
 40
29.0
 40
30.0
 40
30.0
 40
30.0
 40
30.0
 10
113.4589199234906
 20
-860.375
 10
113.4589199979964
 20
-856.8333206176758
 10
113.4589199979964
 20
-853.2916793823242
 10
113.4589183961216
 20
-849.75
 10
113.6325930317107
 20
-848.8530120849609
 10
113.8209636022511
 20
-847.9585800170898
 10
113.9776755382481
 20
-847.0586547851562
 10
115.5455766876403
 20
-838.0549392700195
 10
116.2603085001174
 20
-828.8022003173828
 10
118.8100819547835
 20
-820.0861892700195
 10
135.3138308485213
 20
-763.6703643798828
 10
152.4371771772567
 20
-707.435546875
 10
168.8814072569076
 20
-651.0026798248291
 10
175.4548554380599
 20
-628.4441146850586
 10
184.8599581678573
 20
-607.4672756195068
 10
199.1332917173568
 20
-588.7871513366699
 10
227.2860531767074
 20
-551.9424352645874
 10
262.6440529783431
 20
-524.2713270187378
 10
305.3357129057113
 20
-506.119434595108
 10
320.566292281932
 20
-499.6436021327972
 10
336.3640217741195
 20
-495.1523551940918
 10
353.0857281645003
 20
-495.055502563715
 10
381.9287877042952
 20
-494.8884428143501
 10
410.7726674040023
 20
-494.8460166752338
 10
439.6162610014144
 20
-494.7980578839779
 10
482.4081234892074
 20
-494.7269071489573
 10
525.2000622709456
 20
-494.6928313970566
 10
567.9919629057113
 20
-494.6498963087797
 10
607.457104202098
 20
-494.6102993041277
 10
646.922207351512
 20
-494.5832244902849
 10
686.3873105009261
 20
-494.5278373211622
 10
687.4946789701644
 20
-494.5262832045555
 10
688.6017422636214
 20
-494.2651142030954
 10
689.7089199979964
 20
-494.1250010430813
 10
716.5839199979964
 20
-494.125
 10
743.4589199979964
 20
-494.125
 10
770.3339199979964
 20
-494.125005364418
 10
770.7092099149886
 20
-494.2725725322962
 10
771.0764126737777
 20
-494.5223035514355
 10
771.461010452098
 20
-494.5529977828264
 10
788.9175991972152
 20
-495.9463196098804
 10
804.8676876981917
 20
-502.1338889598846
 10
820.2170376737777
 20
-510.0774929523468
 10
824.9631314237777
 20
-512.5337061882019
 10
829.3951230009261
 20
-515.5969891548157
 10
834.4658474882308
 20
-518.683596611023
 10
832.9494290311995
 20
-519.549075126648
 10
832.1654324491683
 20
-520.0235471725464
 10
831.3577847440902
 20
-520.4536375999451
 10
779.1784481962386
 20
-548.2407960891724
 10
726.957607742137
 20
-575.9506950378418
 10
674.8674206693831
 20
-603.9041004180908
 10
668.5487179716292
 20
-607.2949466705322
 10
662.426586623973
 20
-608.9545021057129
 10
655.1518444975081
 20
-608.8666019439697
 10
627.8735928495589
 20
-608.5369739532471
 10
600.5871396024886
 20
-608.927360534668
 10
573.3036618192855
 20
-608.9747104644775
 10
533.4272580106917
 20
-609.0439281463623
 10
493.5507779081527
 20
-609.0466938018799
 10
453.6743359525863
 20
-609.0845832824707
 10
434.4071011503402
 20
-609.1028938293457
 10
415.1370816190902
 20
-608.9597187042236
 10
395.8742527921859
 20
-609.2645034790039
 10
389.5717053373519
 20
-609.3642292022705
 10
383.1316380460921
 20
-610.0075588226318
 10
377.0228962858382
 20
-611.500602722168
 10
352.1907811124984
 20
-617.5698337554932
 10
332.249355789012
 20
-631.5947685241699
 10
315.6425290067855
 20
-650.6413803100586
 10
308.5427288969222
 20
-658.784252166748
 10
302.8651814420882
 20
-667.7901420593262
 10
299.7718243559066
 20
-678.3148155212402
 10
291.0573582609359
 20
-707.9644927978516
 10
282.1879010160628
 20
-737.568603515625
 10
273.4440426786605
 20
-767.2096786499023
 10
270.2439503629867
 20
-778.0577430725098
 10
268.2771210630599
 20
-789.1366920471191
 10
269.0964226682845
 20
-800.4793891906738
 10
269.5202450712386
 20
-806.3470993041992
 10
270.740213867015
 20
-812.1573219299316
 10
271.6478257139388
 20
-818.314567565918
 10
221.7577462156478
 20
-844.8619232177734
 10
171.5433268507186
 20
-871.5818557739258
 10
120.6374298294249
 20
-898.6697540283203
 10
119.0043215711776
 20
-891.9523391723633
 10
117.2235460837546
 20
-885.7679901123047
 10
116.0477827747527
 20
-879.4707260131836
 10
114.870291825122
 20
-873.164192199707
 10
114.2970264216128
 20
-866.7448959350586
 10
113.4589199234906
 20
-860.375
 97
        0
 97
        0
 75
     2
 76
     1
 98
        0
  0
SPLINE
  5
4A
330
41
100
AcDbEntity
  8
Layer 1
370
     0
100
AcDbSpline
210
0.0
220
0.0
230
1.0
 70
    11
 71
     3
 72
    92
 73
    88
 74
     0
 42
0.0000000001
 43
0.0000000001
 12
1.0
 22
0.0
 32
0.0
 13
1.0
 23
0.0
 33
0.0
 40
0.0
 40
0.0
 40
0.0
 40
0.0
 40
1.0
 40
1.0
 40
1.0
 40
2.0
 40
2.0
 40
2.0
 40
3.0
 40
3.0
 40
3.0
 40
4.0
 40
4.0
 40
4.0
 40
5.0
 40
5.0
 40
5.0
 40
6.0
 40
6.0
 40
6.0
 40
7.0
 40
7.0
 40
7.0
 40
8.0
 40
8.0
 40
8.0
 40
9.0
 40
9.0
 40
9.0
 40
10.0
 40
10.0
 40
10.0
 40
11.0
 40
11.0
 40
11.0
 40
12.0
 40
12.0
 40
12.0
 40
13.0
 40
13.0
 40
13.0
 40
14.0
 40
14.0
 40
14.0
 40
15.0
 40
15.0
 40
15.0
 40
16.0
 40
16.0
 40
16.0
 40
17.0
 40
17.0
 40
17.0
 40
18.0
 40
18.0
 40
18.0
 40
19.0
 40
19.0
 40
19.0
 40
20.0
 40
20.0
 40
20.0
 40
21.0
 40
21.0
 40
21.0
 40
22.0
 40
22.0
 40
22.0
 40
23.0
 40
23.0
 40
23.0
 40
24.0
 40
24.0
 40
24.0
 40
25.0
 40
25.0
 40
25.0
 40
26.0
 40
26.0
 40
26.0
 40
27.0
 40
27.0
 40
27.0
 40
28.0
 40
28.0
 40
28.0
 40
29.0
 40
29.0
 40
29.0
 40
29.0
 10
875.9589199979964
 20
-494.125
 30
0.0
 10
875.9589199979964
 20
-494.125
 30
0.0
 10
875.9589199979964
 20
-552.3249206542969
 30
0.0
 10
875.9589199979964
 20
-552.3249206542969
 30
0.0
 10
875.9589199979964
 20
-552.3249206542969
 30
0.0
 10
865.6088833769027
 20
-557.7999267578125
 30
0.0
 10
865.6088833769027
 20
-557.7999267578125
 30
0.0
 10
865.5339627226058
 20
-557.6749572753906
 30
0.0
 10
865.4839138944808
 20
-557.5750122070312
 30
0.0
 10
865.4089932401839
 20
-557.4498901367188
 30
0.0
 10
626.1089138944808
 20
-684.7750244140625
 30
0.0
 10
386.9089322050277
 20
-812.0249328613281
 30
0.0
 10
146.9589810331527
 20
-939.6749267578125
 30
0.0
 10
151.7088894804183
 20
-943.5
 30
0.0
 10
155.7839016874495
 20
-947.199951171875
 30
0.0
 10
160.2588467558089
 20
-950.2999267578125
 30
0.0
 10
176.2589077909652
 20
-961.4499816894531
 30
0.0
 10
194.3839077909652
 20
-966.3500366210938
 30
0.0
 10
213.5838894804183
 20
-967.875
 30
0.0
 10
215.2089505155745
 20
-967.9999694824219
 30
0.0
 10
216.8338589628402
 20
-968.2999572753906
 30
0.0
 10
218.4589199979964
 20
-968.5
 30
0.0
 10
218.4589199979964
 20
-968.5
 30
0.0
 10
113.4589199979964
 20
-968.5
 30
0.0
 10
113.4589199979964
 20
-968.5
 30
0.0
 10
113.4589199979964
 20
-968.5
 30
0.0
 10
113.4589199979964
 20
-860.375
 30
0.0
 10
113.4589199979964
 20
-860.375
 30
0.0
 10
114.3089871366683
 20
-866.7499694824219
 30
0.0
 10
114.8589138944808
 20
-873.1749877929688
 30
0.0
 10
116.0588650663558
 20
-879.4750366210938
 30
0.0
 10
117.2339444120589
 20
-885.7749328613281
 30
0.0
 10
119.0088467558089
 20
-891.9500122070312
 30
0.0
 10
120.6339077909652
 20
-898.6750183105469
 30
0.0
 10
171.5338711698714
 20
-871.574951171875
 30
0.0
 10
221.7589383085433
 20
-844.8499450683594
 30
0.0
 10
271.6589932401839
 20
-818.3249816894531
 30
0.0
 10
270.7338528593245
 20
-812.14990234375
 30
0.0
 10
269.508877273387
 20
-806.3500366210938
 30
0.0
 10
269.1089444120589
 20
-800.4749450683594
 30
0.0
 10
268.2839016874495
 20
-789.125
 30
0.0
 10
270.233974929637
 20
-778.0500183105469
 30
0.0
 10
273.4338955839339
 20
-767.199951171875
 30
0.0
 10
282.1838955839339
 20
-737.5750122070312
 30
0.0
 10
291.0588650663558
 20
-707.9749450683594
 30
0.0
 10
299.7839932401839
 20
-678.3249816894531
 30
0.0
 10
302.8589444120589
 20
-667.7999267578125
 30
0.0
 10
308.5339932401839
 20
-658.7749633789062
 30
0.0
 10
315.6339077909652
 20
-650.6499633789062
 30
0.0
 10
332.2589688261214
 20
-631.5999755859375
 30
0.0
 10
352.1838955839339
 20
-617.5750122070312
 30
0.0
 10
377.0339016874495
 20
-611.5000305175781
 30
0.0
 10
383.1339077909652
 20
-609.9999389648438
 30
0.0
 10
389.5839505155745
 20
-609.3749389648438
 30
0.0
 10
395.8838467558089
 20
-609.2749938964844
 30
0.0
 10
415.133877273387
 20
-608.9499816894531
 30
0.0
 10
434.4089322050277
 20
-609.0999755859375
 30
0.0
 10
453.6839871366683
 20
-609.074951171875
 30
0.0
 10
493.5588650663558
 20
-609.0499267578125
 30
0.0
 10
533.4338955839339
 20
-609.0499267578125
 30
0.0
 10
573.308926101512
 20
-608.9750061035156
 30
0.0
 10
600.5838589628402
 20
-608.9249572753906
 30
0.0
 10
627.8839688261214
 20
-608.5250244140625
 30
0.0
 10
655.1589016874495
 20
-608.8749084472656
 30
0.0
 10
662.4339871366683
 20
-608.9499816894531
 30
0.0
 10
668.5588650663558
 20
-607.2998962402344
 30
0.0
 10
674.8589138944808
 20
-603.8999328613281
 30
0.0
 10
682.4838833769027
 20
-599.7998962402344
 30
0.0
 10
690.1088528593245
 20
-595.7250366210938
 30
0.0
 10
697.733974929637
 20
-591.6500244140625
 30
0.0
 10
742.2339444120589
 20
-567.8499755859375
 30
0.0
 10
786.8089871366683
 20
-544.1748962402344
 30
0.0
 10
831.3588528593245
 20
-520.4499206542969
 30
0.0
 10
832.1588711698714
 20
-520.0249633789062
 30
0.0
 10
832.9588894804183
 20
-519.5499572753906
 30
0.0
 10
834.4589810331527
 20
-518.6750183105469
 30
0.0
 10
829.3839077909652
 20
-515.5999145507812
 30
0.0
 10
824.9588589628402
 20
-512.5249633789062
 30
0.0
 10
820.2089505155745
 20
-510.0750122070312
 30
0.0
 10
804.8589138944808
 20
-502.1250305175781
 30
0.0
 10
788.9089016874495
 20
-495.949951171875
 30
0.0
 10
771.4589505155745
 20
-494.5499572753906
 30
0.0
 10
771.0838894804183
 20
-494.5249328613281
 30
0.0
 10
770.7089810331527
 20
-494.2749938964844
 30
0.0
 10
770.3339199979964
 20
-494.125
 30
0.0
 10
770.3339199979964
 20
-494.125
 30
0.0
 10
875.9589199979964
 20
-494.125
 30
0.0
 10
875.9589199979964
 20
-494.125
 30
0.0
  0
SPLINE
  5
4B
330
41
100
AcDbEntity
  8
Layer 1
370
     0
100
AcDbSpline
210
0.0
220
0.0
230
1.0
 70
    11
 71
     3
 72
    14
 73
    10
 74
     0
 42
0.0000000001
 43
0.0000000001
 12
1.0
 22
0.0
 32
0.0
 13
1.0
 23
0.0
 33
0.0
 40
0.0
 40
0.0
 40
0.0
 40
0.0
 40
1.0
 40
1.0
 40
1.0
 40
2.0
 40
2.0
 40
2.0
 40
3.0
 40
3.0
 40
3.0
 40
3.0
 10
873.5339932401839
 20
-579.3499145507812
 30
0.0
 10
874.3338589628402
 20
-579.3000183105469
 30
0.0
 10
875.133877273387
 20
-579.2499694824219
 30
0.0
 10
875.9589199979964
 20
-579.2249450683594
 30
0.0
 10
875.9589199979964
 20
-579.2249450683594
 30
0.0
 10
875.9589199979964
 20
-593.5
 30
0.0
 10
875.9589199979964
 20
-593.5
 30
0.0
 10
875.1589016874495
 20
-588.7749633789062
 30
0.0
 10
874.4838528593245
 20
-584.02490234375
 30
0.0
 10
873.5339932401839
 20
-579.3499145507812
 30
0.0
  0
SPLINE
  5
4C
330
41
100
AcDbEntity
  8
Layer 1
370
     0
100
AcDbSpline
210
0.0
220
0.0
230
1.0
 70
    11
 71
     3
 72
    41
 73
    37
 74
     0
 42
0.0000000001
 43
0.0000000001
 12
1.0
 22
0.0
 32
0.0
 13
1.0
 23
0.0
 33
0.0
 40
0.0
 40
0.0
 40
0.0
 40
0.0
 40
1.0
 40
1.0
 40
1.0
 40
2.0
 40
2.0
 40
2.0
 40
3.0
 40
3.0
 40
3.0
 40
4.0
 40
4.0
 40
4.0
 40
5.0
 40
5.0
 40
5.0
 40
6.0
 40
6.0
 40
6.0
 40
7.0
 40
7.0
 40
7.0
 40
8.0
 40
8.0
 40
8.0
 40
9.0
 40
9.0
 40
9.0
 40
10.0
 40
10.0
 40
10.0
 40
11.0
 40
11.0
 40
11.0
 40
12.0
 40
12.0
 40
12.0
 40
12.0
 10
689.7089199979964
 20
-494.1250010430813
 30
0.0
 10
688.6017422636214
 20
-494.2651142030954
 30
0.0
 10
687.4946789701644
 20
-494.5262832045555
 30
0.0
 10
686.3873105009261
 20
-494.5278373211622
 30
0.0
 10
646.922207351512
 20
-494.5832244902849
 30
0.0
 10
607.457104202098
 20
-494.6102993041277
 30
0.0
 10
567.9919629057113
 20
-494.6498963087797
 30
0.0
 10
525.2000622709456
 20
-494.6928313970566
 30
0.0
 10
482.4081234892074
 20
-494.7269071489573
 30
0.0
 10
439.6162610014144
 20
-494.7980578839779
 30
0.0
 10
410.7726674040023
 20
-494.8460166752338
 30
0.0
 10
381.9287877042952
 20
-494.8884428143501
 30
0.0
 10
353.0857281645003
 20
-495.055502563715
 30
0.0
 10
336.3640217741195
 20
-495.1523551940918
 30
0.0
 10
320.566292281932
 20
-499.6436021327972
 30
0.0
 10
305.3357129057113
 20
-506.119434595108
 30
0.0
 10
262.6440529783431
 20
-524.2713270187378
 30
0.0
 10
227.2860531767074
 20
-551.9424352645874
 30
0.0
 10
199.1332917173568
 20
-588.7871513366699
 30
0.0
 10
184.8599581678573
 20
-607.4672756195068
 30
0.0
 10
175.4548554380599
 20
-628.4441146850586
 30
0.0
 10
168.8814072569076
 20
-651.0026798248291
 30
0.0
 10
152.4371771772567
 20
-707.435546875
 30
0.0
 10
135.3138308485213
 20
-763.6703643798828
 30
0.0
 10
118.8100819547835
 20
-820.0861892700195
 30
0.0
 10
116.2603085001174
 20
-828.8022003173828
 30
0.0
 10
115.5455766876403
 20
-838.0549392700195
 30
0.0
 10
113.9776755382481
 20
-847.0586547851562
 30
0.0
 10
113.8209636022511
 20
-847.9585800170898
 30
0.0
 10
113.6325930317107
 20
-848.8530120849609
 30
0.0
 10
113.4589183961216
 20
-849.75
 30
0.0
 10
113.4589199979964
 20
-731.2083396911621
 30
0.0
 10
113.4589199979964
 20
-612.666669845581
 30
0.0
 10
113.4589199979964
 20
-494.125
 30
0.0
 10
305.5422596891585
 20
-494.125
 30
0.0
 10
497.6255993803206
 20
-494.125
 30
0.0
 10
689.7089199979964
 20
-494.1250010430813
 30
0.0
  0
SPLINE
  5
4D
330
41
100
AcDbEntity
  8
Layer 1
370
     0
100
AcDbSpline
210
0.0
220
0.0
230
1.0
 70
    11
 71
     3
 72
    44
 73
    40
 74
     0
 42
0.0000000001
 43
0.0000000001
 12
1.0
 22
0.0
 32
0.0
 13
1.0
 23
0.0
 33
0.0
 40
0.0
 40
0.0
 40
0.0
 40
0.0
 40
1.0
 40
1.0
 40
1.0
 40
2.0
 40
2.0
 40
2.0
 40
3.0
 40
3.0
 40
3.0
 40
4.0
 40
4.0
 40
4.0
 40
5.0
 40
5.0
 40
5.0
 40
6.0
 40
6.0
 40
6.0
 40
7.0
 40
7.0
 40
7.0
 40
8.0
 40
8.0
 40
8.0
 40
9.0
 40
9.0
 40
9.0
 40
10.0
 40
10.0
 40
10.0
 40
11.0
 40
11.0
 40
11.0
 40
12.0
 40
12.0
 40
12.0
 40
13.0
 40
13.0
 40
13.0
 40
13.0
 10
875.9589199979964
 20
-611.625
 30
0.0
 10
875.9589199979964
 20
-611.625
 30
0.0
 10
875.9589199979964
 20
-968.5
 30
0.0
 10
875.9589199979964
 20
-968.5
 30
0.0
 10
875.9589199979964
 20
-968.5
 30
0.0
 10
307.2089199979964
 20
-968.5
 30
0.0
 10
307.2089199979964
 20
-968.5
 30
0.0
 10
308.308926101512
 20
-968.3500061035156
 30
0.0
 10
309.4339566190902
 20
-968.0999145507812
 30
0.0
 10
310.5339627226058
 20
-968.0999145507812
 30
0.0
 10
350.2089505155745
 20
-968.0500183105469
 30
0.0
 10
389.8839383085433
 20
-968.0249938964844
 30
0.0
 10
429.558926101512
 20
-967.9749450683594
 30
0.0
 10
471.9339566190902
 20
-967.9248962402344
 30
0.0
 10
514.3089871366683
 20
-967.9000244140625
 30
0.0
 10
556.6838650663558
 20
-967.824951171875
 30
0.0
 10
585.7338528593245
 20
-967.77490234375
 30
0.0
 10
614.7839932401839
 20
-967.7250061035156
 30
0.0
 10
643.8339810331527
 20
-967.5750122070312
 30
0.0
 10
657.4838833769027
 20
-967.4999389648438
 30
0.0
 10
670.3339199979964
 20
-963.5250244140625
 30
0.0
 10
682.7838711698714
 20
-958.3500061035156
 30
0.0
 10
728.3838467558089
 20
-939.3749389648438
 30
0.0
 10
765.8838467558089
 20
-910.0499877929688
 30
0.0
 10
794.6588711698714
 20
-869.8499450683594
 30
0.0
 10
807.1838955839339
 20
-852.3749694824219
 30
0.0
 10
814.4838528593245
 20
-832.5249633789062
 30
0.0
 10
820.4588894804183
 20
-811.9750366210938
 30
0.0
 10
832.5339322050277
 20
-770.4248962402344
 30
0.0
 10
845.133877273387
 20
-729.02490234375
 30
0.0
 10
857.3589138944808
 20
-687.5249633789062
 30
0.0
 10
862.5839810331527
 20
-669.8499450683594
 30
0.0
 10
867.6088528593245
 20
-652.14990234375
 30
0.0
 10
872.2589688261214
 20
-634.3248901367188
 30
0.0
 10
873.9589505155745
 20
-627.824951171875
 30
0.0
 10
874.3839077909652
 20
-621.0
 30
0.0
 10
875.3839688261214
 20
-614.3000183105469
 30
0.0
 10
875.5339627226058
 20
-613.39990234375
 30
0.0
 10
875.758877273387
 20
-612.5249633789062
 30
0.0
 10
875.9589199979964
 20
-611.625
 30
0.0
  0
SPLINE
  5
4E
330
41
100
AcDbEntity
  8
Layer 1
370
     0
100
AcDbSpline
210
0.0
220
0.0
230
1.0
 70
    11
 71
     3
 72
    32
 73
    28
 74
     0
 42
0.0000000001
 43
0.0000000001
 12
1.0
 22
0.0
 32
0.0
 13
1.0
 23
0.0
 33
0.0
 40
0.0
 40
0.0
 40
0.0
 40
0.0
 40
1.0
 40
1.0
 40
1.0
 40
2.0
 40
2.0
 40
2.0
 40
3.0
 40
3.0
 40
3.0
 40
4.0
 40
4.0
 40
4.0
 40
5.0
 40
5.0
 40
5.0
 40
6.0
 40
6.0
 40
6.0
 40
7.0
 40
7.0
 40
7.0
 40
8.0
 40
8.0
 40
8.0
 40
9.0
 40
9.0
 40
9.0
 40
9.0
 10
725.0589566190902
 20
-674.2249450683594
 30
0.0
 10
724.558926101512
 20
-676.7249450683594
 30
0.0
 10
724.3338589628402
 20
-678.39990234375
 30
0.0
 10
723.883877273387
 20
-679.9999389648438
 30
0.0
 10
717.2589688261214
 20
-702.3249206542969
 30
0.0
 10
710.6589322050277
 20
-724.6749267578125
 30
0.0
 10
703.983974929637
 20
-746.9999084472656
 30
0.0
 10
699.9339871366683
 20
-760.5500183105469
 30
0.0
 10
696.0838894804183
 20
-774.1999206542969
 30
0.0
 10
691.5338711698714
 20
-787.5750122070312
 30
0.0
 10
686.5588955839339
 20
-802.1749267578125
 30
0.0
 10
678.8089566190902
 20
-815.27490234375
 30
0.0
 10
666.6339688261214
 20
-825.1000366210938
 30
0.0
 10
649.9588589628402
 20
-838.5749206542969
 30
0.0
 10
630.6339077909652
 20
-845.5500183105469
 30
0.0
 10
609.2589383085433
 20
-845.7499084472656
 30
0.0
 10
566.7839627226058
 20
-846.0999450683594
 30
0.0
 10
524.3089871366683
 20
-845.949951171875
 30
0.0
 10
481.8338589628402
 20
-846.0
 30
0.0
 10
481.433926101512
 20
-846.0
 30
0.0
 10
481.0089688261214
 20
-845.9749755859375
 30
0.0
 10
480.6088833769027
 20
-845.949951171875
 30
0.0
 10
480.4839138944808
 20
-845.7499084472656
 30
0.0
 10
480.3839688261214
 20
-845.5500183105469
 30
0.0
 10
480.2588467558089
 20
-845.324951171875
 30
0.0
 10
561.5839199979964
 20
-788.5
 30
0.0
 10
642.9089932401839
 20
-731.6500244140625
 30
0.0
 10
725.0589566190902
 20
-674.2249450683594
 30
0.0
  0
ENDBLK
  5
44
330
41
100
AcDbEntity
  8
0
100
AcDbBlockEnd
  0
BLOCK
  5
51
330
4F
100
AcDbEntity
  8
0
100
AcDbBlockBegin
  2
block 3
 70
     0
 10
0.0
 20
0.0
 30
0.0
  3
block 3
  1

  0
SPLINE
  5
53
330
4F
100
AcDbEntity
  8
Layer 1
370
     0
100
AcDbSpline
210
0.0
220
0.0
230
1.0
 70
    11
 71
     3
 72
    86
 73
    82
 74
     0
 42
0.0000000001
 43
0.0000000001
 12
1.0
 22
0.0
 32
0.0
 13
1.0
 23
0.0
 33
0.0
 40
0.0
 40
0.0
 40
0.0
 40
0.0
 40
1.0
 40
1.0
 40
1.0
 40
2.0
 40
2.0
 40
2.0
 40
3.0
 40
3.0
 40
3.0
 40
4.0
 40
4.0
 40
4.0
 40
5.0
 40
5.0
 40
5.0
 40
6.0
 40
6.0
 40
6.0
 40
7.0
 40
7.0
 40
7.0
 40
8.0
 40
8.0
 40
8.0
 40
9.0
 40
9.0
 40
9.0
 40
10.0
 40
10.0
 40
10.0
 40
11.0
 40
11.0
 40
11.0
 40
12.0
 40
12.0
 40
12.0
 40
13.0
 40
13.0
 40
13.0
 40
14.0
 40
14.0
 40
14.0
 40
15.0
 40
15.0
 40
15.0
 40
16.0
 40
16.0
 40
16.0
 40
17.0
 40
17.0
 40
17.0
 40
18.0
 40
18.0
 40
18.0
 40
19.0
 40
19.0
 40
19.0
 40
20.0
 40
20.0
 40
20.0
 40
21.0
 40
21.0
 40
21.0
 40
22.0
 40
22.0
 40
22.0
 40
23.0
 40
23.0
 40
23.0
 40
24.0
 40
24.0
 40
24.0
 40
25.0
 40
25.0
 40
25.0
 40
26.0
 40
26.0
 40
26.0
 40
27.0
 40
27.0
 40
27.0
 40
27.0
 10
953.4839444120589
 20
-464.4249877929688
 30
0.0
 10
953.4839444120589
 20
-464.4249877929688
 30
0.0
 10
696.4450311091059
 20
-591.1388888888869
 30
0.0
 10
696.4450311091059
 20
-591.1388888888869
 30
0.0
 10
690.695061626684
 20
-584.4389071994337
 30
0.0
 10
686.1089138944808
 20
-579.0000305175781
 30
0.0
 10
679.3089871366683
 20
-572.9248962402344
 30
0.0
 10
644.0088467558089
 20
-541.3250122070312
 30
0.0
 10
602.4588589628402
 20
-525.8500061035156
 30
0.0
 10
555.0589566190902
 20
-525.7749328613281
 30
0.0
 10
507.5589566190902
 20
-525.7000122070312
 30
0.0
 10
466.0588650663558
 20
-540.9749755859375
 30
0.0
 10
432.3839383085433
 20
-573.6249694824219
 30
0.0
 10
407.5589566190902
 20
-548.7999877929688
 30
0.0
 10
302.3088650663558
 20
-545.4999694824219
 30
0.0
 10
277.8339199979964
 20
-521.0
 30
0.0
 10
296.8588833769027
 20
-503.3750305175781
 30
0.0
 10
398.8588528593245
 20
-464.9498901367188
 30
0.0
 10
424.1589932401839
 20
-454.6000061035156
 30
0.0
 10
449.6588711698714
 20
-444.1500244140625
 30
0.0
 10
476.2839322050277
 20
-436.5000305175781
 30
0.0
 10
502.3088650663558
 20
-427.3249206542969
 30
0.0
 10
506.6838650663558
 20
-425.7749328613281
 30
0.0
 10
511.483974929637
 20
-423.5
 30
0.0
 10
514.4589810331527
 20
-420.1499328613281
 30
0.0
 10
558.3339505155745
 20
-370.4999694824219
 30
0.0
 10
601.9589810331527
 20
-320.6249389648438
 30
0.0
 10
645.6088833769027
 20
-270.7999572753906
 30
0.0
 10
646.383877273387
 20
-269.8999938964844
 30
0.0
 10
647.0339016874495
 20
-268.8999328613281
 30
0.0
 10
648.0838589628402
 20
-267.4749145507812
 30
0.0
 10
646.1589627226058
 20
-266.1249694824219
 30
0.0
 10
644.508877273387
 20
-264.8249206542969
 30
0.0
 10
642.733974929637
 20
-263.7749633789062
 30
0.0
 10
620.233974929637
 20
-250.3499755859375
 30
0.0
 10
597.633877273387
 20
-237.1000061035156
 30
0.0
 10
575.3339199979964
 20
-223.39990234375
 30
0.0
 10
570.6339077909652
 20
-220.5249938964844
 30
0.0
 10
567.9839138944808
 20
-221.1750183105469
 30
0.0
 10
564.1589932401839
 20
-224.64990234375
 30
0.0
 10
534.5339016874495
 20
-251.574951171875
 30
0.0
 10
504.7339444120589
 20
-278.3500061035156
 30
0.0
 10
474.8839383085433
 20
-305.0499877929688
 30
0.0
 10
446.7839627226058
 20
-330.1749572753906
 30
0.0
 10
404.3839077909652
 20
-323.8999328613281
 30
0.0
 10
386.7088894804183
 20
-292.14990234375
 30
0.0
 10
374.2839627226058
 20
-269.8249206542969
 30
0.0
 10
378.6339383085433
 20
-239.7998962402344
 30
0.0
 10
397.8088955839339
 20
-222.77490234375
 30
0.0
 10
441.1589627226058
 20
-184.2499694824219
 30
0.0
 10
485.3088955839339
 20
-146.5999755859375
 30
0.0
 10
528.2338528593245
 20
-107.6000366210938
 30
0.0
 10
542.6088528593245
 20
-94.54995727539062
 30
0.0
 10
574.3839077909652
 20
-92.47491455078125
 30
0.0
 10
590.183926101512
 20
-102.1749267578125
 30
0.0
 10
628.8089566190902
 20
-125.89990234375
 30
0.0
 10
668.308926101512
 20
-148.2250366210938
 30
0.0
 10
707.4339871366683
 20
-171.1249694824219
 30
0.0
 10
754.1089444120589
 20
-198.39990234375
 30
0.0
 10
800.4089932401839
 20
-226.4249572753906
 30
0.0
 10
847.633877273387
 20
-252.6999816894531
 30
0.0
 10
874.2339138944808
 20
-267.5249633789062
 30
0.0
 10
879.9339871366683
 20
-294.9250183105469
 30
0.0
 10
877.2339444120589
 20
-315.5249938964844
 30
0.0
 10
875.4839138944808
 20
-329.02490234375
 30
0.0
 10
870.133877273387
 20
-340.8500061035156
 30
0.0
 10
860.8838467558089
 20
-351.2999877929688
 30
0.0
 10
827.108974929637
 20
-389.4750366210938
 30
0.0
 10
793.7589077909652
 20
-428.0249938964844
 30
0.0
 10
760.2838711698714
 20
-466.4249572753906
 30
0.0
 10
758.5838894804183
 20
-468.3750305175781
 30
0.0
 10
756.9838528593245
 20
-470.4248962402344
 30
0.0
 10
754.2339138944808
 20
-473.7749633789062
 30
0.0
 10
758.0089383085433
 20
-474.1999206542969
 30
0.0
 10
760.233974929637
 20
-474.7998962402344
 30
0.0
 10
762.4089627226058
 20
-474.6749267578125
 30
0.0
 10
824.2088894804183
 20
-471.3749084472656
 30
0.0
 10
886.0089688261214
 20
-468.2499084472656
 30
0.0
 10
947.7838711698714
 20
-464.5499572753906
 30
0.0
 10
949.7089199979964
 20
-464.4249877929688
 30
0.0
 10
951.6339688261214
 20
-464.3999633789062
 30
0.0
 10
953.4839444120589
 20
-464.4249877929688
 30
0.0
  0
HATCH
  5
54
330
4F
100
AcDbEntity
  8
Layer 1
 62
     7
420
 16777215
100
AcDbHatch
 10
0.0
 20
0.0
 30
0.0
210
0.0
220
0.0
230
1.0
  2
SOLID
 70
     1
 71
     0
 91
        1
 92
        1
 93
        1
 72
     4
 94
        3
 73
     0
 74
     1
 95
       86
 96
       82
 40
0.0
 40
0.0
 40
0.0
 40
0.0
 40
1.0
 40
1.0
 40
1.0
 40
2.0
 40
2.0
 40
2.0
 40
3.0
 40
3.0
 40
3.0
 40
4.0
 40
4.0
 40
4.0
 40
5.0
 40
5.0
 40
5.0
 40
6.0
 40
6.0
 40
6.0
 40
7.0
 40
7.0
 40
7.0
 40
8.0
 40
8.0
 40
8.0
 40
9.0
 40
9.0
 40
9.0
 40
10.0
 40
10.0
 40
10.0
 40
11.0
 40
11.0
 40
11.0
 40
12.0
 40
12.0
 40
12.0
 40
13.0
 40
13.0
 40
13.0
 40
14.0
 40
14.0
 40
14.0
 40
15.0
 40
15.0
 40
15.0
 40
16.0
 40
16.0
 40
16.0
 40
17.0
 40
17.0
 40
17.0
 40
18.0
 40
18.0
 40
18.0
 40
19.0
 40
19.0
 40
19.0
 40
20.0
 40
20.0
 40
20.0
 40
21.0
 40
21.0
 40
21.0
 40
22.0
 40
22.0
 40
22.0
 40
23.0
 40
23.0
 40
23.0
 40
24.0
 40
24.0
 40
24.0
 40
25.0
 40
25.0
 40
25.0
 40
26.0
 40
26.0
 40
26.0
 40
27.0
 40
27.0
 40
27.0
 40
27.0
 10
953.4839444120589
 20
-464.4249877929688
 10
953.4839444120589
 20
-464.4249877929688
 10
696.4450311091059
 20
-591.1388888888869
 10
696.4450311091059
 20
-591.1388888888869
 10
690.695061626684
 20
-584.4389071994337
 10
686.1089138944808
 20
-579.0000305175781
 10
679.3089871366683
 20
-572.9248962402344
 10
644.0088467558089
 20
-541.3250122070312
 10
602.4588589628402
 20
-525.8500061035156
 10
555.0589566190902
 20
-525.7749328613281
 10
507.5589566190902
 20
-525.7000122070312
 10
466.0588650663558
 20
-540.9749755859375
 10
432.3839383085433
 20
-573.6249694824219
 10
407.5589566190902
 20
-548.7999877929688
 10
302.3088650663558
 20
-545.4999694824219
 10
277.8339199979964
 20
-521.0
 10
296.8588833769027
 20
-503.3750305175781
 10
398.8588528593245
 20
-464.9498901367188
 10
424.1589932401839
 20
-454.6000061035156
 10
449.6588711698714
 20
-444.1500244140625
 10
476.2839322050277
 20
-436.5000305175781
 10
502.3088650663558
 20
-427.3249206542969
 10
506.6838650663558
 20
-425.7749328613281
 10
511.483974929637
 20
-423.5
 10
514.4589810331527
 20
-420.1499328613281
 10
558.3339505155745
 20
-370.4999694824219
 10
601.9589810331527
 20
-320.6249389648438
 10
645.6088833769027
 20
-270.7999572753906
 10
646.383877273387
 20
-269.8999938964844
 10
647.0339016874495
 20
-268.8999328613281
 10
648.0838589628402
 20
-267.4749145507812
 10
646.1589627226058
 20
-266.1249694824219
 10
644.508877273387
 20
-264.8249206542969
 10
642.733974929637
 20
-263.7749633789062
 10
620.233974929637
 20
-250.3499755859375
 10
597.633877273387
 20
-237.1000061035156
 10
575.3339199979964
 20
-223.39990234375
 10
570.6339077909652
 20
-220.5249938964844
 10
567.9839138944808
 20
-221.1750183105469
 10
564.1589932401839
 20
-224.64990234375
 10
534.5339016874495
 20
-251.574951171875
 10
504.7339444120589
 20
-278.3500061035156
 10
474.8839383085433
 20
-305.0499877929688
 10
446.7839627226058
 20
-330.1749572753906
 10
404.3839077909652
 20
-323.8999328613281
 10
386.7088894804183
 20
-292.14990234375
 10
374.2839627226058
 20
-269.8249206542969
 10
378.6339383085433
 20
-239.7998962402344
 10
397.8088955839339
 20
-222.77490234375
 10
441.1589627226058
 20
-184.2499694824219
 10
485.3088955839339
 20
-146.5999755859375
 10
528.2338528593245
 20
-107.6000366210938
 10
542.6088528593245
 20
-94.54995727539062
 10
574.3839077909652
 20
-92.47491455078125
 10
590.183926101512
 20
-102.1749267578125
 10
628.8089566190902
 20
-125.89990234375
 10
668.308926101512
 20
-148.2250366210938
 10
707.4339871366683
 20
-171.1249694824219
 10
754.1089444120589
 20
-198.39990234375
 10
800.4089932401839
 20
-226.4249572753906
 10
847.633877273387
 20
-252.6999816894531
 10
874.2339138944808
 20
-267.5249633789062
 10
879.9339871366683
 20
-294.9250183105469
 10
877.2339444120589
 20
-315.5249938964844
 10
875.4839138944808
 20
-329.02490234375
 10
870.133877273387
 20
-340.8500061035156
 10
860.8838467558089
 20
-351.2999877929688
 10
827.108974929637
 20
-389.4750366210938
 10
793.7589077909652
 20
-428.0249938964844
 10
760.2838711698714
 20
-466.4249572753906
 10
758.5838894804183
 20
-468.3750305175781
 10
756.9838528593245
 20
-470.4248962402344
 10
754.2339138944808
 20
-473.7749633789062
 10
758.0089383085433
 20
-474.1999206542969
 10
760.233974929637
 20
-474.7998962402344
 10
762.4089627226058
 20
-474.6749267578125
 10
824.2088894804183
 20
-471.3749084472656
 10
886.0089688261214
 20
-468.2499084472656
 10
947.7838711698714
 20
-464.5499572753906
 10
949.7089199979964
 20
-464.4249877929688
 10
951.6339688261214
 20
-464.3999633789062
 10
953.4839444120589
 20
-464.4249877929688
 97
        0
 97
        0
 75
     2
 76
     1
 98
        0
  0
SPLINE
  5
55
330
4F
100
AcDbEntity
  8
Layer 1
370
     0
100
AcDbSpline
210
0.0
220
0.0
230
1.0
 70
    11
 71
     3
 72
   104
 73
   100
 74
     0
 42
0.0000000001
 43
0.0000000001
 12
1.0
 22
0.0
 32
0.0
 13
1.0
 23
0.0
 33
0.0
 40
0.0
 40
0.0
 40
0.0
 40
0.0
 40
1.0
 40
1.0
 40
1.0
 40
2.0
 40
2.0
 40
2.0
 40
3.0
 40
3.0
 40
3.0
 40
4.0
 40
4.0
 40
4.0
 40
5.0
 40
5.0
 40
5.0
 40
6.0
 40
6.0
 40
6.0
 40
7.0
 40
7.0
 40
7.0
 40
8.0
 40
8.0
 40
8.0
 40
9.0
 40
9.0
 40
9.0
 40
10.0
 40
10.0
 40
10.0
 40
11.0
 40
11.0
 40
11.0
 40
12.0
 40
12.0
 40
12.0
 40
13.0
 40
13.0
 40
13.0
 40
14.0
 40
14.0
 40
14.0
 40
15.0
 40
15.0
 40
15.0
 40
16.0
 40
16.0
 40
16.0
 40
17.0
 40
17.0
 40
17.0
 40
18.0
 40
18.0
 40
18.0
 40
19.0
 40
19.0
 40
19.0
 40
20.0
 40
20.0
 40
20.0
 40
21.0
 40
21.0
 40
21.0
 40
22.0
 40
22.0
 40
22.0
 40
23.0
 40
23.0
 40
23.0
 40
24.0
 40
24.0
 40
24.0
 40
25.0
 40
25.0
 40
25.0
 40
26.0
 40
26.0
 40
26.0
 40
27.0
 40
27.0
 40
27.0
 40
28.0
 40
28.0
 40
28.0
 40
29.0
 40
29.0
 40
29.0
 40
30.0
 40
30.0
 40
30.0
 40
31.0
 40
31.0
 40
31.0
 40
32.0
 40
32.0
 40
32.0
 40
33.0
 40
33.0
 40
33.0
 40
33.0
 10
1012.433987136668
 20
-509.1500244140625
 30
0.0
 10
1010.533962722606
 20
-500.0499877929688
 30
0.0
 10
1007.208919997996
 20
-492.1000061035156
 30
0.0
 10
1002.633877273387
 20
-485.4749450683594
 30
0.0
 10
1002.633877273387
 20
-485.4749450683594
 30
0.0
 10
875.9589199979964
 20
-552.3249206542969
 30
0.0
 10
875.9589199979964
 20
-552.3249206542969
 30
0.0
 10
875.9589199979964
 20
-552.3249206542969
 30
0.0
 10
865.6088833769027
 20
-557.7999267578125
 30
0.0
 10
865.6088833769027
 20
-557.7999267578125
 30
0.0
 10
865.6088833769027
 20
-557.7999267578125
 30
0.0
 10
146.9589810331527
 20
-939.6749267578125
 30
0.0
 10
146.9589810331527
 20
-939.6749267578125
 30
0.0
 10
151.7088894804183
 20
-943.5
 30
0.0
 10
155.7839016874495
 20
-947.199951171875
 30
0.0
 10
160.2588467558089
 20
-950.2999267578125
 30
0.0
 10
176.2589077909652
 20
-961.4499816894531
 30
0.0
 10
194.3839077909652
 20
-966.3500366210938
 30
0.0
 10
213.5838894804183
 20
-967.875
 30
0.0
 10
215.2089505155745
 20
-967.9999694824219
 30
0.0
 10
216.8338589628402
 20
-968.2999572753906
 30
0.0
 10
218.4589199979964
 20
-968.5
 30
0.0
 10
218.4589199979964
 20
-968.5
 30
0.0
 10
307.2089199979964
 20
-968.5
 30
0.0
 10
307.2089199979964
 20
-968.5
 30
0.0
 10
308.308926101512
 20
-968.3500061035156
 30
0.0
 10
309.4339566190902
 20
-968.0999145507812
 30
0.0
 10
310.5339627226058
 20
-968.0999145507812
 30
0.0
 10
350.2089505155745
 20
-968.0500183105469
 30
0.0
 10
389.8839383085433
 20
-968.0249938964844
 30
0.0
 10
429.558926101512
 20
-967.9749450683594
 30
0.0
 10
471.9339566190902
 20
-967.9248962402344
 30
0.0
 10
514.3089871366683
 20
-967.9000244140625
 30
0.0
 10
556.6838650663558
 20
-967.824951171875
 30
0.0
 10
585.7338528593245
 20
-967.77490234375
 30
0.0
 10
614.7839932401839
 20
-967.7250061035156
 30
0.0
 10
643.8339810331527
 20
-967.5750122070312
 30
0.0
 10
657.4838833769027
 20
-967.4999389648438
 30
0.0
 10
670.3339199979964
 20
-963.5250244140625
 30
0.0
 10
682.7838711698714
 20
-958.3500061035156
 30
0.0
 10
728.3838467558089
 20
-939.3749389648438
 30
0.0
 10
765.8838467558089
 20
-910.0499877929688
 30
0.0
 10
794.6588711698714
 20
-869.8499450683594
 30
0.0
 10
807.1838955839339
 20
-852.3749694824219
 30
0.0
 10
814.4838528593245
 20
-832.5249633789062
 30
0.0
 10
820.4588894804183
 20
-811.9750366210938
 30
0.0
 10
832.5339322050277
 20
-770.4248962402344
 30
0.0
 10
845.133877273387
 20
-729.02490234375
 30
0.0
 10
857.3589138944808
 20
-687.5249633789062
 30
0.0
 10
862.5839810331527
 20
-669.8499450683594
 30
0.0
 10
867.6088528593245
 20
-652.14990234375
 30
0.0
 10
872.2589688261214
 20
-634.3248901367188
 30
0.0
 10
873.9589505155745
 20
-627.824951171875
 30
0.0
 10
874.3839077909652
 20
-621.0
 30
0.0
 10
875.3839688261214
 20
-614.3000183105469
 30
0.0
 10
875.5144290576718
 20
-613.5171242048382
 30
0.0
 10
875.7015667881096
 20
-612.7532765091382
 30
0.0
 10
875.8797204129078
 20
-611.975443621177
 30
0.0
 10
875.9327415569169
 20
-611.7439490915895
 30
0.0
 10
875.9589199979964
 20
-611.5051214857704
 30
0.0
 10
875.9589199979964
 20
-611.2676326251021
 30
0.0
 10
875.9589199979964
 20
-611.2676326251021
 30
0.0
 10
875.9589199979964
 20
-583.4478682591252
 30
0.0
 10
875.9589199979964
 20
-583.4478682591252
 30
0.0
 10
875.9589199979964
 20
-581.070274457179
 30
0.0
 10
877.814846035857
 20
-579.1056058980757
 30
0.0
 10
880.188928421594
 20
-578.9764350314726
 30
0.0
 10
880.2424214520433
 20
-578.9735245422926
 30
0.0
 10
880.295930104854
 20
-578.9706028500659
 30
0.0
 10
880.349455891741
 20
-578.9676676964373
 30
0.0
 10
887.142642223178
 20
-578.5951548073099
 30
0.0
 10
892.8589241094451
 20
-583.9965650049235
 30
0.0
 10
892.8589440458527
 20
-590.7999572753906
 30
0.0
 10
892.8589440458527
 20
-590.7999572753906
 30
0.0
 10
892.8589444120589
 20
-590.9249267578125
 30
0.0
 10
892.8589444120589
 20
-590.9249267578125
 30
0.0
 10
891.0838894804183
 20
-614.3999633789062
 30
0.0
 10
889.2839627226058
 20
-637.8499755859375
 30
0.0
 10
887.5089077909652
 20
-661.3250122070312
 30
0.0
 10
883.9089016874495
 20
-709.7249755859375
 30
0.0
 10
880.6088833769027
 20
-758.1499633789062
 30
0.0
 10
876.5588955839339
 20
-806.5000305175781
 30
0.0
 10
875.0089077909652
 20
-825.0249633789062
 30
0.0
 10
881.7088894804183
 20
-840.2999267578125
 30
0.0
 10
894.2088894804183
 20
-852.3749694824219
 30
0.0
 10
923.8089566190902
 20
-880.9749755859375
 30
0.0
 10
977.633877273387
 20
-864.699951171875
 30
0.0
 10
986.3339810331527
 20
-824.5499572753906
 30
0.0
 10
989.4089322050277
 20
-810.4248962402344
 30
0.0
 10
989.6838955839339
 20
-795.6749877929688
 30
0.0
 10
990.8838467558089
 20
-781.1998901367188
 30
0.0
 10
994.5839505155745
 20
-736.9500122070312
 30
0.0
 10
998.0589871366683
 20
-692.6749572753906
 30
0.0
 10
1001.683865066356
 20
-648.4249267578125
 30
0.0
 10
1005.308895583934
 20
-604.1748962402344
 30
0.0
 10
1009.008846755809
 20
-559.9250183105469
 30
0.0
 10
1012.633877273387
 20
-515.6499633789062
 30
0.0
 10
1012.808895583934
 20
-513.5
 30
0.0
 10
1012.858944412059
 20
-511.2499389648438
 30
0.0
 10
1012.433987136668
 20
-509.1500244140625
 30
0.0
  0
SPLINE
  5
56
330
4F
100
AcDbEntity
  8
Layer 1
370
     0
100
AcDbSpline
210
0.0
220
0.0
230
1.0
 70
    11
 71
     3
 72
    32
 73
    28
 74
     0
 42
0.0000000001
 43
0.0000000001
 12
1.0
 22
0.0
 32
0.0
 13
1.0
 23
0.0
 33
0.0
 40
0.0
 40
0.0
 40
0.0
 40
0.0
 40
1.0
 40
1.0
 40
1.0
 40
2.0
 40
2.0
 40
2.0
 40
3.0
 40
3.0
 40
3.0
 40
4.0
 40
4.0
 40
4.0
 40
5.0
 40
5.0
 40
5.0
 40
6.0
 40
6.0
 40
6.0
 40
7.0
 40
7.0
 40
7.0
 40
8.0
 40
8.0
 40
8.0
 40
9.0
 40
9.0
 40
9.0
 40
9.0
 10
666.6339688261214
 20
-825.1000366210938
 30
0.0
 10
649.9588589628402
 20
-838.5749206542969
 30
0.0
 10
630.6339077909652
 20
-845.5500183105469
 30
0.0
 10
609.2589383085433
 20
-845.7499084472656
 30
0.0
 10
566.7839627226058
 20
-846.0999450683594
 30
0.0
 10
524.3089871366683
 20
-845.949951171875
 30
0.0
 10
481.8338589628402
 20
-846.0
 30
0.0
 10
481.433926101512
 20
-846.0
 30
0.0
 10
481.0089688261214
 20
-845.9749755859375
 30
0.0
 10
480.6088833769027
 20
-845.949951171875
 30
0.0
 10
480.4839138944808
 20
-845.7499084472656
 30
0.0
 10
480.3839688261214
 20
-845.5500183105469
 30
0.0
 10
480.2588467558089
 20
-845.324951171875
 30
0.0
 10
561.5839199979964
 20
-788.5
 30
0.0
 10
642.9089932401839
 20
-731.6500244140625
 30
0.0
 10
725.0589566190902
 20
-674.2249450683594
 30
0.0
 10
724.558926101512
 20
-676.7249450683594
 30
0.0
 10
724.3338589628402
 20
-678.39990234375
 30
0.0
 10
723.883877273387
 20
-679.9999389648438
 30
0.0
 10
717.2589688261214
 20
-702.3249206542969
 30
0.0
 10
710.6589322050277
 20
-724.6749267578125
 30
0.0
 10
703.983974929637
 20
-746.9999084472656
 30
0.0
 10
699.9339871366683
 20
-760.5500183105469
 30
0.0
 10
696.0838894804183
 20
-774.1999206542969
 30
0.0
 10
691.5338711698714
 20
-787.5750122070312
 30
0.0
 10
686.5588955839339
 20
-802.1749267578125
 30
0.0
 10
678.8089566190902
 20
-815.27490234375
 30
0.0
 10
666.6339688261214
 20
-825.1000366210938
 30
0.0
  0
SPLINE
  5
57
330
4F
100
AcDbEntity
  8
Layer 1
370
     0
100
AcDbSpline
210
0.0
220
0.0
230
1.0
 70
    11
 71
     3
 72
    32
 73
    28
 74
     0
 42
0.0000000001
 43
0.0000000001
 12
1.0
 22
0.0
 32
0.0
 13
1.0
 23
0.0
 33
0.0
 40
0.0
 40
0.0
 40
0.0
 40
0.0
 40
1.0
 40
1.0
 40
1.0
 40
2.0
 40
2.0
 40
2.0
 40
3.0
 40
3.0
 40
3.0
 40
4.0
 40
4.0
 40
4.0
 40
5.0
 40
5.0
 40
5.0
 40
6.0
 40
6.0
 40
6.0
 40
7.0
 40
7.0
 40
7.0
 40
8.0
 40
8.0
 40
8.0
 40
9.0
 40
9.0
 40
9.0
 40
9.0
 10
817.8339199979964
 20
-798.5
 30
0.0
 10
805.0089077909652
 20
-842.25
 30
0.0
 10
780.4588894804183
 20
-888.39990234375
 30
0.0
 10
752.8339199979964
 20
-913.5
 30
0.0
 10
728.7338833769027
 20
-889.4249877929688
 30
0.0
 10
718.4589199979964
 20
-860.7499084472656
 30
0.0
 10
694.1589932401839
 20
-836.4499816894531
 30
0.0
 10
733.9589505155745
 20
-791.0999450683594
 30
0.0
 10
749.7839932401839
 20
-737.9248962402344
 30
0.0
 10
739.0588955839339
 20
-677.824951171875
 30
0.0
 10
736.2338833769027
 20
-661.9750366210938
 30
0.0
 10
731.483974929637
 20
-647.1250305175781
 30
0.0
 10
724.9339871366683
 20
-633.2250366210938
 30
0.0
 10
724.9339871366683
 20
-633.2250366210938
 30
0.0
 10
815.2588467558089
 20
-585.5500183105469
 30
0.0
 10
815.2588467558089
 20
-585.5500183105469
 30
0.0
 10
815.1589016874495
 20
-585.324951171875
 30
0.0
 10
815.0339322050277
 20
-585.1249084472656
 30
0.0
 10
814.9339871366683
 20
-584.8999938964844
 30
0.0
 10
815.5339627226058
 20
-584.8749694824219
 30
0.0
 10
816.1089138944808
 20
-584.8249206542969
 30
0.0
 10
816.6838650663558
 20
-584.7998962402344
 30
0.0
 10
816.6838650663558
 20
-584.7998962402344
 30
0.0
 10
815.2588467558089
 20
-585.5500183105469
 30
0.0
 10
815.2588467558089
 20
-585.5500183105469
 30
0.0
 10
850.1589016874495
 20
-655.4749450683594
 30
0.0
 10
839.1589932401839
 20
-725.7250366210938
 30
0.0
 10
817.8339199979964
 20
-798.5
 30
0.0
  0
HATCH
  5
58
330
4F
100
AcDbEntity
  8
Layer 1
 62
     7
420
 16777215
100
AcDbHatch
 10
0.0
 20
0.0
 30
0.0
210
0.0
220
0.0
230
1.0
  2
SOLID
 70
     1
 71
     0
 91
        3
 92
        1
 93
        1
 72
     4
 94
        3
 73
     0
 74
     1
 95
      104
 96
      100
 40
0.0
 40
0.0
 40
0.0
 40
0.0
 40
1.0
 40
1.0
 40
1.0
 40
2.0
 40
2.0
 40
2.0
 40
3.0
 40
3.0
 40
3.0
 40
4.0
 40
4.0
 40
4.0
 40
5.0
 40
5.0
 40
5.0
 40
6.0
 40
6.0
 40
6.0
 40
7.0
 40
7.0
 40
7.0
 40
8.0
 40
8.0
 40
8.0
 40
9.0
 40
9.0
 40
9.0
 40
10.0
 40
10.0
 40
10.0
 40
11.0
 40
11.0
 40
11.0
 40
12.0
 40
12.0
 40
12.0
 40
13.0
 40
13.0
 40
13.0
 40
14.0
 40
14.0
 40
14.0
 40
15.0
 40
15.0
 40
15.0
 40
16.0
 40
16.0
 40
16.0
 40
17.0
 40
17.0
 40
17.0
 40
18.0
 40
18.0
 40
18.0
 40
19.0
 40
19.0
 40
19.0
 40
20.0
 40
20.0
 40
20.0
 40
21.0
 40
21.0
 40
21.0
 40
22.0
 40
22.0
 40
22.0
 40
23.0
 40
23.0
 40
23.0
 40
24.0
 40
24.0
 40
24.0
 40
25.0
 40
25.0
 40
25.0
 40
26.0
 40
26.0
 40
26.0
 40
27.0
 40
27.0
 40
27.0
 40
28.0
 40
28.0
 40
28.0
 40
29.0
 40
29.0
 40
29.0
 40
30.0
 40
30.0
 40
30.0
 40
31.0
 40
31.0
 40
31.0
 40
32.0
 40
32.0
 40
32.0
 40
33.0
 40
33.0
 40
33.0
 40
33.0
 10
1012.433987136668
 20
-509.1500244140625
 10
1010.533962722606
 20
-500.0499877929688
 10
1007.208919997996
 20
-492.1000061035156
 10
1002.633877273387
 20
-485.4749450683594
 10
1002.633877273387
 20
-485.4749450683594
 10
875.9589199979964
 20
-552.3249206542969
 10
875.9589199979964
 20
-552.3249206542969
 10
875.9589199979964
 20
-552.3249206542969
 10
865.6088833769027
 20
-557.7999267578125
 10
865.6088833769027
 20
-557.7999267578125
 10
865.6088833769027
 20
-557.7999267578125
 10
146.9589810331527
 20
-939.6749267578125
 10
146.9589810331527
 20
-939.6749267578125
 10
151.7088894804183
 20
-943.5
 10
155.7839016874495
 20
-947.199951171875
 10
160.2588467558089
 20
-950.2999267578125
 10
176.2589077909652
 20
-961.4499816894531
 10
194.3839077909652
 20
-966.3500366210938
 10
213.5838894804183
 20
-967.875
 10
215.2089505155745
 20
-967.9999694824219
 10
216.8338589628402
 20
-968.2999572753906
 10
218.4589199979964
 20
-968.5
 10
218.4589199979964
 20
-968.5
 10
307.2089199979964
 20
-968.5
 10
307.2089199979964
 20
-968.5
 10
308.308926101512
 20
-968.3500061035156
 10
309.4339566190902
 20
-968.0999145507812
 10
310.5339627226058
 20
-968.0999145507812
 10
350.2089505155745
 20
-968.0500183105469
 10
389.8839383085433
 20
-968.0249938964844
 10
429.558926101512
 20
-967.9749450683594
 10
471.9339566190902
 20
-967.9248962402344
 10
514.3089871366683
 20
-967.9000244140625
 10
556.6838650663558
 20
-967.824951171875
 10
585.7338528593245
 20
-967.77490234375
 10
614.7839932401839
 20
-967.7250061035156
 10
643.8339810331527
 20
-967.5750122070312
 10
657.4838833769027
 20
-967.4999389648438
 10
670.3339199979964
 20
-963.5250244140625
 10
682.7838711698714
 20
-958.3500061035156
 10
728.3838467558089
 20
-939.3749389648438
 10
765.8838467558089
 20
-910.0499877929688
 10
794.6588711698714
 20
-869.8499450683594
 10
807.1838955839339
 20
-852.3749694824219
 10
814.4838528593245
 20
-832.5249633789062
 10
820.4588894804183
 20
-811.9750366210938
 10
832.5339322050277
 20
-770.4248962402344
 10
845.133877273387
 20
-729.02490234375
 10
857.3589138944808
 20
-687.5249633789062
 10
862.5839810331527
 20
-669.8499450683594
 10
867.6088528593245
 20
-652.14990234375
 10
872.2589688261214
 20
-634.3248901367188
 10
873.9589505155745
 20
-627.824951171875
 10
874.3839077909652
 20
-621.0
 10
875.3839688261214
 20
-614.3000183105469
 10
875.5144290576718
 20
-613.5171242048382
 10
875.7015667881096
 20
-612.7532765091382
 10
875.8797204129078
 20
-611.975443621177
 10
875.9327415569169
 20
-611.7439490915895
 10
875.9589199979964
 20
-611.5051214857704
 10
875.9589199979964
 20
-611.2676326251021
 10
875.9589199979964
 20
-611.2676326251021
 10
875.9589199979964
 20
-583.4478682591252
 10
875.9589199979964
 20
-583.4478682591252
 10
875.9589199979964
 20
-581.070274457179
 10
877.814846035857
 20
-579.1056058980757
 10
880.188928421594
 20
-578.9764350314726
 10
880.2424214520433
 20
-578.9735245422926
 10
880.295930104854
 20
-578.9706028500659
 10
880.349455891741
 20
-578.9676676964373
 10
887.142642223178
 20
-578.5951548073099
 10
892.8589241094451
 20
-583.9965650049235
 10
892.8589440458527
 20
-590.7999572753906
 10
892.8589440458527
 20
-590.7999572753906
 10
892.8589444120589
 20
-590.9249267578125
 10
892.8589444120589
 20
-590.9249267578125
 10
891.0838894804183
 20
-614.3999633789062
 10
889.2839627226058
 20
-637.8499755859375
 10
887.5089077909652
 20
-661.3250122070312
 10
883.9089016874495
 20
-709.7249755859375
 10
880.6088833769027
 20
-758.1499633789062
 10
876.5588955839339
 20
-806.5000305175781
 10
875.0089077909652
 20
-825.0249633789062
 10
881.7088894804183
 20
-840.2999267578125
 10
894.2088894804183
 20
-852.3749694824219
 10
923.8089566190902
 20
-880.9749755859375
 10
977.633877273387
 20
-864.699951171875
 10
986.3339810331527
 20
-824.5499572753906
 10
989.4089322050277
 20
-810.4248962402344
 10
989.6838955839339
 20
-795.6749877929688
 10
990.8838467558089
 20
-781.1998901367188
 10
994.5839505155745
 20
-736.9500122070312
 10
998.0589871366683
 20
-692.6749572753906
 10
1001.683865066356
 20
-648.4249267578125
 10
1005.308895583934
 20
-604.1748962402344
 10
1009.008846755809
 20
-559.9250183105469
 10
1012.633877273387
 20
-515.6499633789062
 10
1012.808895583934
 20
-513.5
 10
1012.858944412059
 20
-511.2499389648438
 10
1012.433987136668
 20
-509.1500244140625
 97
        0
 97
        0
 92
        1
 93
        1
 72
     4
 94
        3
 73
     0
 74
     1
 95
       32
 96
       28
 40
0.0
 40
0.0
 40
0.0
 40
0.0
 40
1.0
 40
1.0
 40
1.0
 40
2.0
 40
2.0
 40
2.0
 40
3.0
 40
3.0
 40
3.0
 40
4.0
 40
4.0
 40
4.0
 40
5.0
 40
5.0
 40
5.0
 40
6.0
 40
6.0
 40
6.0
 40
7.0
 40
7.0
 40
7.0
 40
8.0
 40
8.0
 40
8.0
 40
9.0
 40
9.0
 40
9.0
 40
9.0
 10
666.6339688261214
 20
-825.1000366210938
 10
649.9588589628402
 20
-838.5749206542969
 10
630.6339077909652
 20
-845.5500183105469
 10
609.2589383085433
 20
-845.7499084472656
 10
566.7839627226058
 20
-846.0999450683594
 10
524.3089871366683
 20
-845.949951171875
 10
481.8338589628402
 20
-846.0
 10
481.433926101512
 20
-846.0
 10
481.0089688261214
 20
-845.9749755859375
 10
480.6088833769027
 20
-845.949951171875
 10
480.4839138944808
 20
-845.7499084472656
 10
480.3839688261214
 20
-845.5500183105469
 10
480.2588467558089
 20
-845.324951171875
 10
561.5839199979964
 20
-788.5
 10
642.9089932401839
 20
-731.6500244140625
 10
725.0589566190902
 20
-674.2249450683594
 10
724.558926101512
 20
-676.7249450683594
 10
724.3338589628402
 20
-678.39990234375
 10
723.883877273387
 20
-679.9999389648438
 10
717.2589688261214
 20
-702.3249206542969
 10
710.6589322050277
 20
-724.6749267578125
 10
703.983974929637
 20
-746.9999084472656
 10
699.9339871366683
 20
-760.5500183105469
 10
696.0838894804183
 20
-774.1999206542969
 10
691.5338711698714
 20
-787.5750122070312
 10
686.5588955839339
 20
-802.1749267578125
 10
678.8089566190902
 20
-815.27490234375
 10
666.6339688261214
 20
-825.1000366210938
 97
        0
 97
        0
 92
        1
 93
        1
 72
     4
 94
        3
 73
     0
 74
     1
 95
       32
 96
       28
 40
0.0
 40
0.0
 40
0.0
 40
0.0
 40
1.0
 40
1.0
 40
1.0
 40
2.0
 40
2.0
 40
2.0
 40
3.0
 40
3.0
 40
3.0
 40
4.0
 40
4.0
 40
4.0
 40
5.0
 40
5.0
 40
5.0
 40
6.0
 40
6.0
 40
6.0
 40
7.0
 40
7.0
 40
7.0
 40
8.0
 40
8.0
 40
8.0
 40
9.0
 40
9.0
 40
9.0
 40
9.0
 10
817.8339199979964
 20
-798.5
 10
805.0089077909652
 20
-842.25
 10
780.4588894804183
 20
-888.39990234375
 10
752.8339199979964
 20
-913.5
 10
728.7338833769027
 20
-889.4249877929688
 10
718.4589199979964
 20
-860.7499084472656
 10
694.1589932401839
 20
-836.4499816894531
 10
733.9589505155745
 20
-791.0999450683594
 10
749.7839932401839
 20
-737.9248962402344
 10
739.0588955839339
 20
-677.824951171875
 10
736.2338833769027
 20
-661.9750366210938
 10
731.483974929637
 20
-647.1250305175781
 10
724.9339871366683
 20
-633.2250366210938
 10
724.9339871366683
 20
-633.2250366210938
 10
815.2588467558089
 20
-585.5500183105469
 10
815.2588467558089
 20
-585.5500183105469
 10
815.1589016874495
 20
-585.324951171875
 10
815.0339322050277
 20
-585.1249084472656
 10
814.9339871366683
 20
-584.8999938964844
 10
815.5339627226058
 20
-584.8749694824219
 10
816.1089138944808
 20
-584.8249206542969
 10
816.6838650663558
 20
-584.7998962402344
 10
816.6838650663558
 20
-584.7998962402344
 10
815.2588467558089
 20
-585.5500183105469
 10
815.2588467558089
 20
-585.5500183105469
 10
850.1589016874495
 20
-655.4749450683594
 10
839.1589932401839
 20
-725.7250366210938
 10
817.8339199979964
 20
-798.5
 97
        0
 97
        0
 75
     2
 76
     1
 98
        0
  0
SPLINE
  5
59
330
4F
100
AcDbEntity
  8
Layer 1
370
     0
100
AcDbSpline
210
0.0
220
0.0
230
1.0
 70
    11
 71
     3
 72
    17
 73
    13
 74
     0
 42
0.0000000001
 43
0.0000000001
 12
1.0
 22
0.0
 32
0.0
 13
1.0
 23
0.0
 33
0.0
 40
0.0
 40
0.0
 40
0.0
 40
0.0
 40
1.0
 40
1.0
 40
1.0
 40
2.0
 40
2.0
 40
2.0
 40
3.0
 40
3.0
 40
3.0
 40
4.0
 40
4.0
 40
4.0
 40
4.0
 10
889.7959598662819
 20
-48.50018584829013
 30
0.0
 10
942.5380504774148
 20
-48.60735824624862
 30
0.0
 10
984.2754558630768
 20
-91.1322709690794
 30
0.0
 10
984.0415160515986
 20
-144.5238757717452
 30
0.0
 10
983.8182462429213
 20
-195.4700159629683
 30
0.0
 10
940.5583203737915
 20
-238.4586125524584
 30
0.0
 10
889.513382625355
 20
-238.458990448391
 30
0.0
 10
835.8239735985844
 20
-238.4593905734946
 30
0.0
 10
795.0664301371107
 20
-196.5385278271169
 30
0.0
 10
795.0402441718907
 20
-141.2894867133837
 30
0.0
 10
795.0165923323439
 20
-91.41635979374041
 30
0.0
 10
838.947794752894
 20
-48.3968313107107
 30
0.0
 10
889.7959598662819
 20
-48.50018584829013
 30
0.0
  0
HATCH
  5
5A
330
4F
100
AcDbEntity
  8
Layer 1
 62
     7
420
 16777215
100
AcDbHatch
 10
0.0
 20
0.0
 30
0.0
210
0.0
220
0.0
230
1.0
  2
SOLID
 70
     1
 71
     0
 91
        1
 92
        1
 93
        1
 72
     4
 94
        3
 73
     0
 74
     1
 95
       17
 96
       13
 40
0.0
 40
0.0
 40
0.0
 40
0.0
 40
1.0
 40
1.0
 40
1.0
 40
2.0
 40
2.0
 40
2.0
 40
3.0
 40
3.0
 40
3.0
 40
4.0
 40
4.0
 40
4.0
 40
4.0
 10
889.7959598662819
 20
-48.50018584829013
 10
942.5380504774148
 20
-48.60735824624862
 10
984.2754558630768
 20
-91.1322709690794
 10
984.0415160515986
 20
-144.5238757717452
 10
983.8182462429213
 20
-195.4700159629683
 10
940.5583203737915
 20
-238.4586125524584
 10
889.513382625355
 20
-238.458990448391
 10
835.8239735985844
 20
-238.4593905734946
 10
795.0664301371107
 20
-196.5385278271169
 10
795.0402441718907
 20
-141.2894867133837
 10
795.0165923323439
 20
-91.41635979374041
 10
838.947794752894
 20
-48.3968313107107
 10
889.7959598662819
 20
-48.50018584829013
 97
        0
 97
        0
 75
     2
 76
     1
 98
        0
  0
ENDBLK
  5
52
330
4F
100
AcDbEntity
  8
0
100
AcDbBlockEnd
  0
ENDSEC
  0
SECTION
  2
ENTITIES
  0
INSERT
  5
42
330
1F
100
AcDbEntity
  8
Layer 1
100
AcDbBlockReference
  2
block 2
 10
0.0
 20
0.0
 30
0.0
  0
INSERT
  5
50
330
1F
100
AcDbEntity
  8
Layer 1
100
AcDbBlockReference
  2
block 3
 10
0.0
 20
0.0
 30
0.0
  0
SPLINE
  5
5B
330
1F
100
AcDbEntity
  8
Layer 1
370
     0
100
AcDbSpline
210
0.0
220
0.0
230
1.0
 70
    11
 71
     3
 72
    14
 73
    10
 74
     0
 42
0.0000000001
 43
0.0000000001
 12
1.0
 22
0.0
 32
0.0
 13
1.0
 23
0.0
 33
0.0
 40
0.0
 40
0.0
 40
0.0
 40
0.0
 40
1.0
 40
1.0
 40
1.0
 40
2.0
 40
2.0
 40
2.0
 40
3.0
 40
3.0
 40
3.0
 40
3.0
 10
816.6838650663558
 20
-584.7998962402344
 30
0.0
 10
816.6838650663558
 20
-584.7998962402344
 30
0.0
 10
815.2588467558089
 20
-585.5500183105469
 30
0.0
 10
815.2588467558089
 20
-585.5500183105469
 30
0.0
 10
815.1589016874495
 20
-585.324951171875
 30
0.0
 10
815.0339322050277
 20
-585.1249084472656
 30
0.0
 10
814.9339871366683
 20
-584.8999938964844
 30
0.0
 10
815.5339627226058
 20
-584.8749694824219
 30
0.0
 10
816.1089138944808
 20
-584.8249206542969
 30
0.0
 10
816.6838650663558
 20
-584.7998962402344
 30
0.0
  0
HATCH
  5
5C
330
1F
100
AcDbEntity
  8
Layer 1
 62
     7
420
 16777215
100
AcDbHatch
 10
0.0
 20
0.0
 30
0.0
210
0.0
220
0.0
230
1.0
  2
SOLID
 70
     1
 71
     0
 91
        1
 92
        1
 93
        1
 72
     4
 94
        3
 73
     0
 74
     1
 95
       14
 96
       10
 40
0.0
 40
0.0
 40
0.0
 40
0.0
 40
1.0
 40
1.0
 40
1.0
 40
2.0
 40
2.0
 40
2.0
 40
3.0
 40
3.0
 40
3.0
 40
3.0
 10
816.6838650663558
 20
-584.7998962402344
 10
816.6838650663558
 20
-584.7998962402344
 10
815.2588467558089
 20
-585.5500183105469
 10
815.2588467558089
 20
-585.5500183105469
 10
815.1589016874495
 20
-585.324951171875
 10
815.0339322050277
 20
-585.1249084472656
 10
814.9339871366683
 20
-584.8999938964844
 10
815.5339627226058
 20
-584.8749694824219
 10
816.1089138944808
 20
-584.8249206542969
 10
816.6838650663558
 20
-584.7998962402344
 97
        0
 97
        0
 75
     2
 76
     1
 98
        0
  0
ENDSEC
  0
SECTION
  2
OBJECTS
  0
DICTIONARY
  5
C
330
0
100
AcDbDictionary
281
     1
  3
ACAD_GROUP
350
D
  3
ACAD_LAYOUT
350
1A
  3
ACAD_MATERIAL
350
3B
  3
ACAD_MLEADERSTYLE
350
5E
  3
ACAD_MLINESTYLE
350
17
  3
ACAD_PLOTSETTINGS
350
19
  3
ACAD_PLOTSTYLENAME
350
E
  3
ACAD_TABLESTYLE
350
5D
  3
ACAD_VISUALSTYLE
350
2A
  0
SUN
  5
3F
330
29
100
AcDbSun
 90
        1
290
     0
 63
     7
421
 16777215
 40
1.0
291
     1
 91
  2455826
 92
 54000000
292
     0
 70
     2
 71
   256
280
     1
  0
DICTIONARY
  5
D
102
{ACAD_REACTORS
330
C
102
}
330
C
100
AcDbDictionary
281
     1
  0
DICTIONARY
  5
1A
102
{ACAD_REACTORS
330
C
102
}
330
C
100
AcDbDictionary
281
     1
  3
Layout1
350
1E
  3
Layout2
350
26
  3
Model
350
22
  0
DICTIONARY
  5
3B
102
{ACAD_REACTORS
330
C
102
}
330
C
100
AcDbDictionary
281
     1
  3
ByBlock
350
3D
  3
ByLayer
350
3C
  3
Global
350
3E
  0
DICTIONARY
  5
5E
102
{ACAD_REACTORS
330
C
102
}
330
C
100
AcDbDictionary
281
     1
  0
DICTIONARY
  5
17
102
{ACAD_REACTORS
330
C
102
}
330
C
100
AcDbDictionary
281
     1
  3
Standard
350
18
  0
DICTIONARY
  5
19
102
{ACAD_REACTORS
330
C
102
}
330
C
100
AcDbDictionary
281
     1
  0
ACDBDICTIONARYWDFLT
  5
E
102
{ACAD_REACTORS
330
C
102
}
330
C
100
AcDbDictionary
281
     1
  3
Normal
350
F
100
AcDbDictionaryWithDefault
340
F
  0
DICTIONARY
  5
5D
102
{ACAD_REACTORS
330
C
102
}
330
C
100
AcDbDictionary
281
     1
  0
DICTIONARY
  5
2A
102
{ACAD_REACTORS
330
C
102
}
330
C
100
AcDbDictionary
281
     1
  3
2dWireframe
350
2F
  3
3D Hidden
350
31
  3
3dWireframe
350
30
  3
Basic
350
32
  3
Brighten
350
36
  3
ColorChange
350
3A
  3
Conceptual
350
34
  3
Dim
350
35
  3
Facepattern
350
39
  3
Flat
350
2B
  3
FlatWithEdges
350
2C
  3
Gouraud
350
2D
  3
GouraudWithEdges
350
2E
  3
Linepattern
350
38
  3
Realistic
350
33
  3
Thicken
350
37
  0
LAYOUT
  5
1E
102
{ACAD_REACTORS
330
1A
102
}
330
1A
100
AcDbPlotSettings
  1

  2
none_device
  4

  6

 40
0.0
 41
0.0
 42
0.0
 43
0.0
 44
0.0
 45
0.0
 46
0.0
 47
0.0
 48
0.0
 49
0.0
140
0.0
141
0.0
142
1.0
143
1.0
 70
   688
 72
     0
 73
     0
 74
     5
  7

 75
    16
 76
     0
 77
     2
 78
   300
147
1.0
148
0.0
149
0.0
100
AcDbLayout
  1
Layout1
 70
     1
 71
     1
 10
0.0
 20
0.0
 11
12.0
 21
9.0
 12
0.0
 22
0.0
 32
0.0
 14
1.000000000000000E+20
 24
1.000000000000000E+20
 34
1.000000000000000E+20
 15
-1.000000000000000E+20
 25
-1.000000000000000E+20
 35
-1.000000000000000E+20
146
0.0
 13
0.0
 23
0.0
 33
0.0
 16
1.0
 26
0.0
 36
0.0
 17
0.0
 27
1.0
 37
0.0
 76
     0
330
1B
  0
LAYOUT
  5
26
102
{ACAD_REACTORS
330
1A
102
}
330
1A
100
AcDbPlotSettings
  1

  2
none_device
  4

  6

 40
0.0
 41
0.0
 42
0.0
 43
0.0
 44
0.0
 45
0.0
 46
0.0
 47
0.0
 48
0.0
 49
0.0
140
0.0
141
0.0
142
1.0
143
1.0
 70
   688
 72
     0
 73
     0
 74
     5
  7

 75
    16
 76
     0
 77
     2
 78
   300
147
1.0
148
0.0
149
0.0
100
AcDbLayout
  1
Layout2
 70
     1
 71
     2
 10
0.0
 20
0.0
 11
0.0
 21
0.0
 12
0.0
 22
0.0
 32
0.0
 14
0.0
 24
0.0
 34
0.0
 15
0.0
 25
0.0
 35
0.0
146
0.0
 13
0.0
 23
0.0
 33
0.0
 16
1.0
 26
0.0
 36
0.0
 17
0.0
 27
1.0
 37
0.0
 76
     0
330
23
  0
LAYOUT
  5
22
102
{ACAD_REACTORS
330
1A
102
}
330
1A
100
AcDbPlotSettings
  1

  2
none_device
  4

  6

 40
0.0
 41
0.0
 42
0.0
 43
0.0
 44
0.0
 45
0.0
 46
0.0
 47
0.0
 48
0.0
 49
0.0
140
0.0
141
0.0
142
1.0
143
1.0
 70
  1712
 72
     0
 73
     0
 74
     0
  7

 75
     0
 76
     0
 77
     2
 78
   300
147
1.0
148
0.0
149
0.0
100
AcDbLayout
  1
Model
 70
     1
 71
     0
 10
0.0
 20
0.0
 11
12.0
 21
9.0
 12
0.0
 22
0.0
 32
0.0
 14
1.000000000000000E+20
 24
1.000000000000000E+20
 34
1.000000000000000E+20
 15
-1.000000000000000E+20
 25
-1.000000000000000E+20
 35
-1.000000000000000E+20
146
0.0
 13
0.0
 23
0.0
 33
0.0
 16
1.0
 26
0.0
 36
0.0
 17
0.0
 27
1.0
 37
0.0
 76
     0
330
1F
331
29
  0
MATERIAL
  5
3D
102
{ACAD_REACTORS
330
3B
102
}
330
3B
100
AcDbMaterial
  1
ByBlock
 72
     1
 94
      127
  0
MATERIAL
  5
3C
102
{ACAD_REACTORS
330
3B
102
}
330
3B
100
AcDbMaterial
  1
ByLayer
 72
     1
 94
      127
  0
MATERIAL
  5
3E
102
{ACAD_REACTORS
330
3B
102
}
330
3B
100
AcDbMaterial
  1
Global
 72
     1
 94
      127
  0
MLINESTYLE
  5
18
102
{ACAD_REACTORS
330
17
102
}
330
17
100
AcDbMlineStyle
  2
Standard
 70
     0
  3

 62
   256
 51
90.0
 52
90.0
 71
     2
 49
0.5
 62
   256
  6
BYLAYER
 49
-0.5
 62
   256
  6
BYLAYER
  0
ACDBPLACEHOLDER
  5
F
102
{ACAD_REACTORS
330
E
102
}
330
E
  0
VISUALSTYLE
  5
2F
102
{ACAD_REACTORS
330
2A
102
}
330
2A
100
AcDbVisualStyle
  2
2dWireframe
 70
     4
177
     2
291
     0
 71
     0
176
     1
 72
     2
176
     1
 73
     0
176
     1
 90
        0
176
     1
 40
-0.6
176
     1
 41
-30.0
176
     1
 62
     5
 63
     7
421
 16777215
176
     1
 74
     1
176
     1
 91
        4
176
     1
 64
     7
176
     1
 65
   257
176
     1
 75
     1
176
     1
175
     1
176
     1
 42
1.0
176
     1
 92
        0
176
     1
 66
   257
176
     1
 43
1.0
176
     1
 76
     1
176
     1
 77
     6
176
     1
 78
     2
176
     1
 67
     7
176
     1
 79
     5
176
     1
170
     0
176
     1
171
     0
176
     1
290
     0
176
     1
 93
        1
176
     1
 44
0.0
176
     1
173
     0
176
     1
  0
VISUALSTYLE
  5
31
102
{ACAD_REACTORS
330
2A
102
}
330
2A
100
AcDbVisualStyle
  2
3D Hidden
 70
     6
177
     2
291
     0
 71
     1
176
     1
 72
     2
176
     1
 73
     2
176
     1
 90
        0
176
     1
 40
-0.6
176
     1
 41
-30.0
176
     1
 62
     5
 63
     7
421
 16777215
176
     1
 74
     2
176
     1
 91
        2
176
     1
 64
     7
176
     1
 65
   257
176
     1
 75
     2
176
     1
175
     1
176
     1
 42
40.0
176
     1
 92
        0
176
     1
 66
   257
176
     1
 43
1.0
176
     1
 76
     1
176
     1
 77
     6
176
     1
 78
     2
176
     1
 67
     7
176
     1
 79
     3
176
     1
170
     0
176
     1
171
     0
176
     1
290
     0
176
     1
 93
        1
176
     1
 44
0.0
176
     1
173
     0
176
     1
  0
VISUALSTYLE
  5
30
102
{ACAD_REACTORS
330
2A
102
}
330
2A
100
AcDbVisualStyle
  2
3dWireframe
 70
     5
177
     2
291
     0
 71
     0
176
     1
 72
     2
176
     1
 73
     0
176
     1
 90
        0
176
     1
 40
-0.6
176
     1
 41
-30.0
176
     1
 62
     5
 63
     7
421
 16777215
176
     1
 74
     1
176
     1
 91
        4
176
     1
 64
     7
176
     1
 65
   257
176
     1
 75
     1
176
     1
175
     1
176
     1
 42
1.0
176
     1
 92
        0
176
     1
 66
   257
176
     1
 43
1.0
176
     1
 76
     1
176
     1
 77
     6
176
     1
 78
     2
176
     1
 67
     7
176
     1
 79
     5
176
     1
170
     0
176
     1
171
     0
176
     1
290
     0
176
     1
 93
        1
176
     1
 44
0.0
176
     1
173
     0
176
     1
  0
VISUALSTYLE
  5
32
102
{ACAD_REACTORS
330
2A
102
}
330
2A
100
AcDbVisualStyle
  2
Basic
 70
     7
177
     2
291
     1
 71
     1
176
     1
 72
     0
176
     1
 73
     1
176
     1
 90
        0
176
     1
 40
-0.6
176
     1
 41
-30.0
176
     1
 62
     5
 63
     7
421
 16777215
176
     1
 74
     0
176
     1
 91
        4
176
     1
 64
     7
176
     1
 65
   257
176
     1
 75
     1
176
     1
175
     1
176
     1
 42
1.0
176
     1
 92
        8
176
     1
 66
     7
176
     1
 43
1.0
176
     1
 76
     1
176
     1
 77
     6
176
     1
 78
     2
176
     1
 67
     7
176
     1
 79
     5
176
     1
170
     0
176
     1
171
     0
176
     1
290
     0
176
     1
 93
        1
176
     1
 44
0.0
176
     1
173
     0
176
     1
  0
VISUALSTYLE
  5
36
102
{ACAD_REACTORS
330
2A
102
}
330
2A
100
AcDbVisualStyle
  2
Brighten
 70
    12
177
     2
291
     1
 71
     2
176
     1
 72
     2
176
     1
 73
     0
176
     1
 90
        0
176
     1
 40
-0.6
176
     1
 41
-30.0
176
     1
 62
     5
 63
     7
421
 16777215
176
     1
 74
     1
176
     1
 91
        4
176
     1
 64
     7
176
     1
 65
   257
176
     1
 75
     1
176
     1
175
     1
176
     1
 42
1.0
176
     1
 92
        8
176
     1
 66
     7
176
     1
 43
1.0
176
     1
 76
     1
176
     1
 77
     6
176
     1
 78
     2
176
     1
 67
     7
176
     1
 79
     5
176
     1
170
     0
176
     1
171
     0
176
     1
290
     0
176
     1
 93
        1
176
     1
 44
50.0
176
     1
173
     0
176
     1
  0
VISUALSTYLE
  5
3A
102
{ACAD_REACTORS
330
2A
102
}
330
2A
100
AcDbVisualStyle
  2
ColorChange
 70
    16
177
     2
291
     1
 71
     2
176
     1
 72
     2
176
     1
 73
     3
176
     1
 90
        0
176
     1
 40
-0.6
176
     1
 41
-30.0
176
     1
 62
     5
 63
     8
421
  8421504
176
     1
 74
     1
176
     1
 91
        4
176
     1
 64
     7
176
     1
 65
   257
176
     1
 75
     1
176
     1
175
     1
176
     1
 42
1.0
176
     1
 92
        8
176
     1
 66
     8
424
  8421504
176
     1
 43
1.0
176
     1
 76
     1
176
     1
 77
     6
176
     1
 78
     2
176
     1
 67
     7
176
     1
 79
     5
176
     1
170
     0
176
     1
171
     0
176
     1
290
     0
176
     1
 93
        1
176
     1
 44
0.0
176
     1
173
     0
176
     1
  0
VISUALSTYLE
  5
34
102
{ACAD_REACTORS
330
2A
102
}
330
2A
100
AcDbVisualStyle
  2
Conceptual
 70
     9
177
     2
291
     0
 71
     3
176
     1
 72
     2
176
     1
 73
     0
176
     1
 90
        0
176
     1
 40
-0.6
176
     1
 41
-30.0
176
     1
 62
     5
 63
     7
421
 16777215
176
     1
 74
     2
176
     1
 91
        2
176
     1
 64
     7
176
     1
 65
   257
176
     1
 75
     1
176
     1
175
     1
176
     1
 42
40.0
176
     1
 92
        8
176
     1
 66
     7
176
     1
 43
1.0
176
     1
 76
     1
176
     1
 77
     6
176
     1
 78
     2
176
     1
 67
     7
176
     1
 79
     3
176
     1
170
     0
176
     1
171
     0
176
     1
290
     0
176
     1
 93
        1
176
     1
 44
0.0
176
     1
173
     0
176
     1
  0
VISUALSTYLE
  5
35
102
{ACAD_REACTORS
330
2A
102
}
330
2A
100
AcDbVisualStyle
  2
Dim
 70
    11
177
     2
291
     1
 71
     2
176
     1
 72
     2
176
     1
 73
     0
176
     1
 90
        0
176
     1
 40
-0.6
176
     1
 41
-30.0
176
     1
 62
     5
 63
     7
421
 16777215
176
     1
 74
     1
176
     1
 91
        4
176
     1
 64
     7
176
     1
 65
   257
176
     1
 75
     1
176
     1
175
     1
176
     1
 42
1.0
176
     1
 92
        8
176
     1
 66
     7
176
     1
 43
1.0
176
     1
 76
     1
176
     1
 77
     6
176
     1
 78
     2
176
     1
 67
     7
176
     1
 79
     5
176
     1
170
     0
176
     1
171
     0
176
     1
290
     0
176
     1
 93
        1
176
     1
 44
-50.0
176
     1
173
     0
176
     1
  0
VISUALSTYLE
  5
39
102
{ACAD_REACTORS
330
2A
102
}
330
2A
100
AcDbVisualStyle
  2
Facepattern
 70
    15
177
     2
291
     1
 71
     2
176
     1
 72
     2
176
     1
 73
     0
176
     1
 90
        0
176
     1
 40
-0.6
176
     1
 41
-30.0
176
     1
 62
     5
 63
     7
421
 16777215
176
     1
 74
     1
176
     1
 91
        4
176
     1
 64
     7
176
     1
 65
   257
176
     1
 75
     1
176
     1
175
     1
176
     1
 42
1.0
176
     1
 92
        8
176
     1
 66
     7
176
     1
 43
1.0
176
     1
 76
     1
176
     1
 77
     6
176
     1
 78
     2
176
     1
 67
     7
176
     1
 79
     5
176
     1
170
     0
176
     1
171
     0
176
     1
290
     0
176
     1
 93
        1
176
     1
 44
0.0
176
     1
173
     0
176
     1
  0
VISUALSTYLE
  5
2B
102
{ACAD_REACTORS
330
2A
102
}
330
2A
100
AcDbVisualStyle
  2
Flat
 70
     0
177
     2
291
     1
 71
     2
176
     1
 72
     1
176
     1
 73
     1
176
     1
 90
        2
176
     1
 40
-0.6
176
     1
 41
30.0
176
     1
 62
     5
 63
     7
421
 16777215
176
     1
 74
     0
176
     1
 91
        4
176
     1
 64
     7
176
     1
 65
   257
176
     1
 75
     1
176
     1
175
     1
176
     1
 42
1.0
176
     1
 92
        8
176
     1
 66
     7
176
     1
 43
1.0
176
     1
 76
     1
176
     1
 77
     6
176
     1
 78
     2
176
     1
 67
     7
176
     1
 79
     5
176
     1
170
     0
176
     1
171
     0
176
     1
290
     0
176
     1
 93
       13
176
     1
 44
0.0
176
     1
173
     0
176
     1
  0
VISUALSTYLE
  5
2C
102
{ACAD_REACTORS
330
2A
102
}
330
2A
100
AcDbVisualStyle
  2
FlatWithEdges
 70
     1
177
     2
291
     1
 71
     2
176
     1
 72
     1
176
     1
 73
     1
176
     1
 90
        2
176
     1
 40
-0.6
176
     1
 41
30.0
176
     1
 62
     5
 63
     7
421
 16777215
176
     1
 74
     1
176
     1
 91
        4
176
     1
 64
     7
176
     1
 65
   257
176
     1
 75
     1
176
     1
175
     1
176
     1
 42
1.0
176
     1
 92
        0
176
     1
 66
   257
176
     1
 43
1.0
176
     1
 76
     1
176
     1
 77
     6
176
     1
 78
     2
176
     1
 67
     7
176
     1
 79
     5
176
     1
170
     0
176
     1
171
     0
176
     1
290
     0
176
     1
 93
       13
176
     1
 44
0.0
176
     1
173
     0
176
     1
  0
VISUALSTYLE
  5
2D
102
{ACAD_REACTORS
330
2A
102
}
330
2A
100
AcDbVisualStyle
  2
Gouraud
 70
     2
177
     2
291
     1
 71
     2
176
     1
 72
     2
176
     1
 73
     1
176
     1
 90
        2
176
     1
 40
-0.6
176
     1
 41
30.0
176
     1
 62
     5
 63
     7
421
 16777215
176
     1
 74
     0
176
     1
 91
        4
176
     1
 64
     7
176
     1
 65
   257
176
     1
 75
     1
176
     1
175
     1
176
     1
 42
1.0
176
     1
 92
        0
176
     1
 66
     7
176
     1
 43
1.0
176
     1
 76
     1
176
     1
 77
     6
176
     1
 78
     2
176
     1
 67
     7
176
     1
 79
     5
176
     1
170
     0
176
     1
171
     0
176
     1
290
     0
176
     1
 93
       13
176
     1
 44
0.0
176
     1
173
     0
176
     1
  0
VISUALSTYLE
  5
2E
102
{ACAD_REACTORS
330
2A
102
}
330
2A
100
AcDbVisualStyle
  2
GouraudWithEdges
 70
     3
177
     2
291
     1
 71
     2
176
     1
 72
     2
176
     1
 73
     1
176
     1
 90
        2
176
     1
 40
-0.6
176
     1
 41
30.0
176
     1
 62
     5
 63
     7
421
 16777215
176
     1
 74
     1
176
     1
 91
        4
176
     1
 64
     7
176
     1
 65
   257
176
     1
 75
     1
176
     1
175
     1
176
     1
 42
1.0
176
     1
 92
        0
176
     1
 66
   257
176
     1
 43
1.0
176
     1
 76
     1
176
     1
 77
     6
176
     1
 78
     2
176
     1
 67
     7
176
     1
 79
     5
176
     1
170
     0
176
     1
171
     0
176
     1
290
     0
176
     1
 93
       13
176
     1
 44
0.0
176
     1
173
     0
176
     1
  0
VISUALSTYLE
  5
38
102
{ACAD_REACTORS
330
2A
102
}
330
2A
100
AcDbVisualStyle
  2
Linepattern
 70
    14
177
     2
291
     1
 71
     2
176
     1
 72
     2
176
     1
 73
     0
176
     1
 90
        0
176
     1
 40
-0.6
176
     1
 41
-30.0
176
     1
 62
     5
 63
     7
421
 16777215
176
     1
 74
     1
176
     1
 91
        4
176
     1
 64
     7
176
     1
 65
   257
176
     1
 75
     7
176
     1
175
     7
176
     1
 42
1.0
176
     1
 92
        8
176
     1
 66
     7
176
     1
 43
1.0
176
     1
 76
     1
176
     1
 77
     6
176
     1
 78
     2
176
     1
 67
     7
176
     1
 79
     5
176
     1
170
     0
176
     1
171
     0
176
     1
290
     0
176
     1
 93
        1
176
     1
 44
0.0
176
     1
173
     0
176
     1
  0
VISUALSTYLE
  5
33
102
{ACAD_REACTORS
330
2A
102
}
330
2A
100
AcDbVisualStyle
  2
Realistic
 70
     8
177
     2
291
     0
 71
     2
176
     1
 72
     2
176
     1
 73
     0
176
     1
 90
        0
176
     1
 40
-0.6
176
     1
 41
-30.0
176
     1
 62
     5
 63
     7
421
 16777215
176
     1
 74
     1
176
     1
 91
        0
176
     1
 64
     7
176
     1
 65
   257
176
     1
 75
     1
176
     1
175
     1
176
     1
 42
1.0
176
     1
 92
        8
176
     1
 66
     8
424
  7895160
176
     1
 43
1.0
176
     1
 76
     1
176
     1
 77
     6
176
     1
 78
     2
176
     1
 67
     7
176
     1
 79
     5
176
     1
170
     0
176
     1
171
     0
176
     1
290
     0
176
     1
 93
       13
176
     1
 44
0.0
176
     1
173
     0
176
     1
  0
VISUALSTYLE
  5
37
102
{ACAD_REACTORS
330
2A
102
}
330
2A
100
AcDbVisualStyle
  2
Thicken
 70
    13
177
     2
291
     1
 71
     2
176
     1
 72
     2
176
     1
 73
     0
176
     1
 90
        0
176
     1
 40
-0.6
176
     1
 41
-30.0
176
     1
 62
     5
 63
     7
421
 16777215
176
     1
 74
     1
176
     1
 91
        4
176
     1
 64
     7
176
     1
 65
   257
176
     1
 75
     1
176
     1
175
     1
176
     1
 42
1.0
176
     1
 92
       12
176
     1
 66
     7
176
     1
 43
1.0
176
     1
 76
     1
176
     1
 77
     6
176
     1
 78
     2
176
     1
 67
     7
176
     1
 79
     5
176
     1
170
     0
176
     1
171
     0
176
     1
290
     0
176
     1
 93
        1
176
     1
 44
0.0
176
     1
173
     0
176
     1
  0
ENDSEC
  0
EOF
